<svg width="127" height="34" viewBox="0 0 127 34" fill="none" xmlns="http://www.w3.org/2000/svg">
<path d="M10.7402 29.5957C10.4121 29.5957 9.88574 29.8418 9.16113 30.334C8.4502 30.8398 7.85547 31.0928 7.37695 31.0928C6.21484 31.0928 5.30566 30.5732 4.64941 29.5342C4.29395 28.9736 4 28.3994 3.76758 27.8115C3.54883 27.2236 3.36426 26.5332 3.21387 25.7402C3.0498 24.8242 2.91992 24.0176 2.82422 23.3203C2.74219 22.623 2.6875 21.8301 2.66016 20.9414C2.5918 19.3691 2.55762 17.8721 2.55762 16.4502V15.4453C2.55762 15.1172 2.61914 14.625 2.74219 13.9688C2.86523 13.3262 2.92676 12.8408 2.92676 12.5127C2.92676 12.1846 2.90625 11.7061 2.86523 11.0771C2.82422 10.4346 2.80371 9.94922 2.80371 9.62109C2.80371 8.95117 2.81055 8.5 2.82422 8.26758C2.83789 7.88477 2.87207 7.44727 2.92676 6.95508C2.99512 6.46289 3.07715 6.07324 3.17285 5.78613C3.2959 5.43066 3.45996 5.08887 3.66504 4.76074C3.87012 4.43262 4.10254 4.17285 4.3623 3.98145C5.03223 3.53027 5.89355 3.30469 6.94629 3.30469V3.40723H7.52051V3.38672C7.60254 3.53711 7.80078 3.66016 8.11523 3.75586C8.42969 3.85156 8.73047 3.89941 9.01758 3.89941C9.3457 3.89941 9.61914 3.81738 9.83789 3.65332C10.0703 3.47559 10.1865 3.24316 10.1865 2.95605C10.1865 2.55957 10.0361 2.21094 9.73535 1.91016C9.44824 1.5957 9.07227 1.34961 8.60742 1.17188C8.15625 0.994141 7.70508 0.905273 7.25391 0.905273C5.99609 0.905273 4.85449 1.1377 3.8291 1.60254C2.81738 2.06738 2.01758 2.73047 1.42969 3.5918C0.855469 4.43945 0.568359 5.42383 0.568359 6.54492C0.568359 6.96875 0.609375 7.40625 0.691406 7.85742C0.5 8.88281 0.404297 10.1748 0.404297 11.7334C0.404297 12.5537 0.397461 13.3398 0.383789 14.0918C0.370117 14.8438 0.363281 15.7324 0.363281 16.7578C0.363281 17.9883 0.383789 19.0957 0.424805 20.0801C0.452148 21.1875 0.520508 22.3359 0.629883 23.5254C0.739258 24.7012 0.882812 25.7197 1.06055 26.5811C1.26562 27.5791 1.53223 28.5361 1.86035 29.4521C2.18848 30.3545 2.55762 31.0859 2.96777 31.6465C3.43262 32.2754 3.99316 32.7676 4.64941 33.123C5.30566 33.4922 6.03027 33.6768 6.82324 33.6768C7.2334 33.6768 7.69141 33.6426 8.19727 33.5742C8.66211 33.5059 9.12695 33.3896 9.5918 33.2256C10.0566 33.0615 10.46 32.8564 10.8018 32.6104C11.1572 32.3506 11.4375 32.0156 11.6426 31.6055C11.8613 31.1953 11.9707 30.7373 11.9707 30.2314C11.5469 29.8076 11.1367 29.5957 10.7402 29.5957ZM16.2388 3.57129C16.2388 4.65137 16.232 5.68359 16.2183 6.66797C16.2046 7.65234 16.1978 8.80762 16.1978 10.1338C16.1978 13.0459 16.2661 15.7324 16.4029 18.1934C16.4849 19.6016 16.6011 20.9004 16.7515 22.0898C16.9155 23.2656 17.1275 24.5098 17.3872 25.8223C17.6196 27.0117 17.9273 28.0645 18.3101 28.9805C18.6929 29.8965 19.1509 30.7373 19.6841 31.5029C20.19 32.2412 20.7915 32.8018 21.4888 33.1846C22.1861 33.5674 22.9585 33.7588 23.8062 33.7588C24.5034 33.7588 25.1255 33.6221 25.6724 33.3486C26.1782 33.0752 26.5747 32.7402 26.8618 32.3438C27.1626 31.9336 27.395 31.4072 27.5591 30.7646C27.7095 30.1768 27.812 29.6094 27.8667 29.0625C27.9214 28.5156 27.9487 27.8594 27.9487 27.0938C27.9487 24.4688 27.8257 20.8115 27.5796 16.1221C27.3198 11.542 27.19 8.02148 27.19 5.56055C27.19 5.30078 27.2446 4.86328 27.354 4.24805C27.4497 3.72852 27.4976 3.31152 27.4976 2.99707V2.2998L26.4722 1.31543C26.0757 1.31543 25.7134 1.4248 25.3853 1.64355C25.0571 1.8623 24.8931 2.13574 24.8931 2.46387C24.8931 3.16113 24.9478 4.36426 25.0571 6.07324C25.1529 7.56348 25.2007 8.75977 25.2007 9.66211L25.2417 10.8721L25.2827 12.1025V12.3896C25.2827 13.3467 25.3716 14.666 25.5493 16.3477C25.7271 18.0293 25.8159 19.3486 25.8159 20.3057V28.5088C25.8159 28.96 25.8023 29.3428 25.7749 29.6572C25.7476 29.958 25.6861 30.3408 25.5904 30.8057C25.4946 31.2842 25.3169 31.6533 25.0571 31.9131C24.7974 32.1592 24.4693 32.2822 24.0728 32.2822C23.4302 32.2822 22.8081 31.9678 22.2066 31.3389C21.6187 30.6963 21.1402 29.8896 20.771 28.9189C20.4292 27.9893 20.1558 27.0732 19.9507 26.1709C19.7456 25.2686 19.6431 24.5098 19.6431 23.8945C19.6431 23.1699 19.5816 22.2607 19.4585 21.167C19.3355 20.0732 19.1987 19.3555 19.0484 19.0137C19.0484 17.3867 18.9868 14.9463 18.8638 11.6924C18.7271 8.60254 18.6587 6.17578 18.6587 4.41211C18.6587 2.41602 18.1529 1.41797 17.1411 1.41797C16.813 1.41797 16.5259 1.54785 16.2798 1.80762C16.0474 2.06738 15.9312 2.36816 15.9312 2.70996C15.9312 3.05176 16.0337 3.33887 16.2388 3.57129ZM41.9786 25.3301C41.9786 23.2656 41.5889 21.3652 40.8096 19.6289C40.044 17.8926 38.8477 16.4775 37.2207 15.3838C37.836 14.9463 38.4034 14.3379 38.9229 13.5586C39.4424 12.7793 39.8526 11.9316 40.1534 11.0156C40.4678 10.0859 40.625 9.2041 40.625 8.37012C40.625 7.0166 40.3721 5.82031 39.8662 4.78125C39.3604 3.74219 38.6289 2.93555 37.6719 2.36133C36.7149 1.77344 35.5801 1.47949 34.2676 1.47949C33.9121 1.47949 33.6182 1.58203 33.3858 1.78711C33.1534 1.99219 32.9961 2.2793 32.9141 2.64844C32.8184 3.00391 32.7569 3.3252 32.7295 3.6123C32.7022 3.89941 32.6885 4.24805 32.6885 4.6582V4.9043C32.6885 7.05078 32.7364 9.89453 32.8321 13.4355C32.9278 16.9766 32.9756 19.8203 32.9756 21.9668C32.9756 22.8555 32.9414 24.5781 32.8731 27.1348C32.8047 29.6914 32.7705 31.4141 32.7705 32.3027C32.7705 33 33.4268 33.3486 34.7393 33.3486H34.9034C35.8877 33.3486 36.8037 33.1299 37.6514 32.6924C38.4307 32.2822 39.0801 31.7695 39.5996 31.1543C40.1192 30.5391 40.584 29.8076 40.9942 28.96C41.6504 27.5518 41.9786 26.3418 41.9786 25.3301ZM35.5596 3.8584C36.0655 3.8584 36.5508 4.04297 37.0157 4.41211C37.4805 4.76758 37.8565 5.22559 38.1436 5.78613C38.4307 6.34668 38.5743 6.90039 38.5743 7.44727V8.94434C38.4786 9.16309 38.3418 9.5459 38.1641 10.0928C37.795 11.2002 37.4053 12.1572 36.9952 12.9639C36.7491 13.4697 36.462 13.8799 36.1338 14.1943C35.8194 14.5088 35.4844 14.707 35.1289 14.7891C35.1289 13.5723 35.1016 12.0068 35.0469 10.0928C34.9922 8.17871 34.9649 6.53809 34.9649 5.1709C34.9649 4.2959 35.1631 3.8584 35.5596 3.8584ZM39.8047 25.4326C39.8047 26.417 39.6202 27.3193 39.251 28.1396C38.8955 28.9463 38.376 29.6162 37.6924 30.1494C37.0225 30.6826 36.2295 31.0176 35.3135 31.1543C35.3135 25.5625 35.2452 20.9209 35.1084 17.2295H36.6055L36.9336 17.373C37.1524 17.4961 37.419 17.7422 37.7334 18.1113C38.0479 18.4805 38.3623 18.9248 38.6768 19.4443C39.0049 20.0049 39.2715 20.8252 39.4766 21.9053C39.6954 22.9717 39.8047 24.1475 39.8047 25.4326ZM54.7574 32.9795C54.3062 32.9795 53.9781 32.8975 53.773 32.7334C53.5679 32.5693 53.4654 32.2891 53.4654 31.8926V26.417C53.0962 26.1572 52.4127 25.9316 51.4146 25.7402C50.4302 25.5352 49.48 25.4053 48.564 25.3506C48.2906 25.8154 48.0582 26.5264 47.8668 27.4834L47.7437 28.1191C47.525 29.2402 47.3267 30.1494 47.149 30.8467C46.9712 31.5439 46.7525 32.1045 46.4927 32.5283C45.4127 32.5283 44.7974 32.248 44.647 31.6875C44.9068 31.3184 45.2554 30.0059 45.6929 27.75C46.0621 25.8223 46.5201 23.2588 47.067 20.0596C47.6959 16.3408 48.2701 13.2168 48.7896 10.6875C49.3091 8.14453 49.856 6.00488 50.4302 4.26855C51.0591 2.32715 51.6744 1.35645 52.2759 1.35645C52.8638 1.35645 53.315 1.47949 53.6295 1.72559C53.6295 2.76465 53.9029 5.46484 54.4498 9.82617C54.9966 14.1875 55.2701 17.0586 55.2701 18.4395C55.2701 19.752 55.4205 21.8711 55.7212 24.7969C56.0084 27.8047 56.1519 30.0605 56.1519 31.5645C56.1519 32.5078 55.6871 32.9795 54.7574 32.9795ZM52.563 23.9561C52.8091 23.9561 53.0962 23.915 53.4244 23.833C53.3834 23.2314 53.2398 21.707 52.9937 19.2598C52.3511 12.7793 52.0298 8.91016 52.0298 7.65234C52.0298 7.44727 52.0367 7.32422 52.0504 7.2832C51.7769 7.55664 51.3941 8.82129 50.9019 11.0771C50.4097 13.333 49.9517 15.7598 49.5279 18.3574C49.1041 20.9414 48.8716 22.6504 48.8306 23.4844C50.0201 23.7988 51.2642 23.9561 52.563 23.9561ZM74.8189 29.5752C74.8189 24.8721 74.7643 21.2217 74.6549 18.624V18.4395C74.6686 18.3984 74.6754 18.2959 74.6754 18.1318C74.6754 17.9404 74.6686 17.7695 74.6549 17.6191L74.6139 17.1064C74.6139 15.2744 74.5455 12.7588 74.4088 9.55957C74.2584 6.03223 74.1832 3.50977 74.1832 1.99219C74.1832 1.66406 74.0533 1.38379 73.7936 1.15137C73.5475 0.905273 73.2535 0.782227 72.9117 0.782227C72.6246 0.782227 72.3785 0.864258 72.1734 1.02832C71.982 1.19238 71.8863 1.39746 71.8863 1.64355C71.8863 4.8291 72.0299 9.60059 72.317 15.958C72.5904 22.4932 72.7271 27.2715 72.7271 30.293C72.7271 30.498 72.6861 30.7988 72.6041 31.1953C72.5084 31.5781 72.4605 31.8926 72.4605 32.1387C72.4605 32.4941 72.6041 32.8018 72.8912 33.0615C73.1783 33.335 73.5064 33.4717 73.8756 33.4717C74.3814 33.4717 74.7779 33.3008 75.065 32.959C75.3111 32.959 75.5367 32.9658 75.7418 32.9795L76.4186 33.0205C76.7467 33.0205 77.0133 32.9932 77.2184 32.9385L77.4234 33C77.5738 33.0547 77.7174 33.082 77.8541 33.082C78.1549 33.082 78.4078 32.9658 78.6129 32.7334C78.818 32.4873 78.9205 32.207 78.9205 31.8926C78.9205 31.4688 78.6197 31.0518 78.0182 30.6416H74.8189V29.5752ZM88.5821 31.8721C88.5821 30.8877 88.0011 30.3955 86.839 30.3955C86.5519 30.3955 86.2648 30.416 85.9777 30.457V28.8369C85.9777 25.9932 85.8068 21.8984 85.465 16.5527C85.1232 11.207 84.9523 7.1123 84.9523 4.26855C84.9523 3.94043 85.0138 3.71484 85.1368 3.5918C85.2599 3.46875 85.465 3.40723 85.7521 3.40723H86.0802C86.1896 3.4209 86.3263 3.42773 86.4903 3.42773C86.7775 3.42773 87.0099 3.31836 87.1876 3.09961C87.379 2.86719 87.4747 2.60059 87.4747 2.2998C87.4747 1.98535 87.3517 1.71875 87.1056 1.5C86.8595 1.26758 86.5724 1.15137 86.2443 1.15137C85.3966 1.15137 84.4054 1.25391 83.2706 1.45898C82.6144 1.58203 82.0812 1.77344 81.671 2.0332C81.2609 2.2793 81.0558 2.56641 81.0558 2.89453C81.0558 3.56445 81.3839 3.89941 82.0402 3.89941C82.3273 3.89941 82.6554 3.83789 83.0245 3.71484C83.0929 4.43945 83.1271 5.21875 83.1271 6.05273L83.0861 8.18555L83.045 10.3389C83.045 12.6084 83.1749 15.8418 83.4347 20.0391C83.6945 24.25 83.8243 27.4902 83.8243 29.7598C83.8243 30.1289 83.7765 30.3887 83.6808 30.5391C83.5851 30.6758 83.4278 30.7441 83.2091 30.7441L82.8195 30.7031C82.6827 30.6895 82.5187 30.6826 82.3273 30.6826C81.4796 30.6826 81.0558 31.0176 81.0558 31.6875C81.0558 32.5215 82.2657 32.9385 84.6857 32.9385C85.1778 32.9385 85.7589 32.918 86.4288 32.877L87.5362 32.8359L88.5821 32.1182V31.8721ZM102.468 25.3301C102.468 23.2656 102.079 21.3652 101.299 19.6289C100.534 17.8926 99.3375 16.4775 97.7106 15.3838C98.3258 14.9463 98.8932 14.3379 99.4127 13.5586C99.9323 12.7793 100.342 11.9316 100.643 11.0156C100.958 10.0859 101.115 9.2041 101.115 8.37012C101.115 7.0166 100.862 5.82031 100.356 4.78125C99.8502 3.74219 99.1188 2.93555 98.1618 2.36133C97.2047 1.77344 96.07 1.47949 94.7575 1.47949C94.402 1.47949 94.108 1.58203 93.8756 1.78711C93.6432 1.99219 93.486 2.2793 93.4039 2.64844C93.3082 3.00391 93.2467 3.3252 93.2194 3.6123C93.192 3.89941 93.1784 4.24805 93.1784 4.6582V4.9043C93.1784 7.05078 93.2262 9.89453 93.3219 13.4355C93.4176 16.9766 93.4655 19.8203 93.4655 21.9668C93.4655 22.8555 93.4313 24.5781 93.3629 27.1348C93.2946 29.6914 93.2604 31.4141 93.2604 32.3027C93.2604 33 93.9166 33.3486 95.2291 33.3486H95.3932C96.3776 33.3486 97.2936 33.1299 98.1413 32.6924C98.9205 32.2822 99.57 31.7695 100.089 31.1543C100.609 30.5391 101.074 29.8076 101.484 28.96C102.14 27.5518 102.468 26.3418 102.468 25.3301ZM96.0495 3.8584C96.5553 3.8584 97.0407 4.04297 97.5055 4.41211C97.9704 4.76758 98.3463 5.22559 98.6334 5.78613C98.9205 6.34668 99.0641 6.90039 99.0641 7.44727V8.94434C98.9684 9.16309 98.8317 9.5459 98.6539 10.0928C98.2848 11.2002 97.8952 12.1572 97.485 12.9639C97.2389 13.4697 96.9518 13.8799 96.6237 14.1943C96.3092 14.5088 95.9743 14.707 95.6188 14.7891C95.6188 13.5723 95.5914 12.0068 95.5368 10.0928C95.4821 8.17871 95.4547 6.53809 95.4547 5.1709C95.4547 4.2959 95.653 3.8584 96.0495 3.8584ZM100.295 25.4326C100.295 26.417 100.11 27.3193 99.7409 28.1396C99.3854 28.9463 98.8659 29.6162 98.1823 30.1494C97.5123 30.6826 96.7194 31.0176 95.8034 31.1543C95.8034 25.5625 95.735 20.9209 95.5983 17.2295H97.0954L97.4235 17.373C97.6422 17.4961 97.9088 17.7422 98.2233 18.1113C98.5377 18.4805 98.8522 18.9248 99.1666 19.4443C99.4948 20.0049 99.7614 20.8252 99.9664 21.9053C100.185 22.9717 100.295 24.1475 100.295 25.4326ZM108.521 15.3838C108.808 16.5186 109.32 18.2617 110.059 20.6133C110.865 23.1973 111.481 25.4053 111.904 27.2373C112.342 29.0557 112.602 30.6963 112.684 32.1592V32.3027C113.176 33.0547 113.682 33.4307 114.201 33.4307C114.707 33.4307 115.008 33.1982 115.104 32.7334C115.145 32.5283 115.172 32.3369 115.186 32.1592C115.213 31.9814 115.227 31.7764 115.227 31.5439V31.4414L113.996 27.7295C113.367 25.8701 112.868 24.3389 112.499 23.1357C112.089 21.8369 111.72 20.415 111.392 18.8701C111.077 17.3252 110.913 16.0469 110.9 15.0352L111.33 13.9482L111.822 12.7383C112.219 11.6719 112.465 10.8926 112.561 10.4004C112.752 9.44336 112.848 8.65723 112.848 8.04199C112.848 7.38574 112.786 6.74316 112.663 6.11426C112.527 5.45801 112.315 4.8291 112.027 4.22754C111.74 3.6123 111.399 3.07227 111.002 2.60742C110.578 2.12891 110.066 1.75293 109.464 1.47949C108.876 1.20605 108.24 1.06934 107.557 1.06934C107.106 1.06934 106.805 1.1377 106.654 1.27441C106.518 1.39746 106.449 1.62988 106.449 1.97168V7.13965C106.449 10.4756 106.422 14.5771 106.367 19.4443C106.313 24.3115 106.285 28.4199 106.285 31.7695V32.0977C106.285 32.4258 106.381 32.7061 106.572 32.9385C106.777 33.1572 107.037 33.2666 107.352 33.2666C107.803 33.2666 108.111 33.1572 108.275 32.9385C108.439 32.7197 108.521 32.3848 108.521 31.9336V15.3838ZM109.833 11.877C109.382 12.4922 108.91 13.0322 108.418 13.4971C108.391 12.9229 108.377 12.2803 108.377 11.5693C108.377 10.5576 108.418 9.10156 108.5 7.20117C108.569 5.08203 108.603 3.68066 108.603 2.99707C108.89 3.05176 109.156 3.25 109.402 3.5918C109.662 3.93359 109.874 4.35742 110.038 4.86328C110.366 5.91602 110.53 6.85938 110.53 7.69336C110.53 7.81641 110.517 8.00098 110.489 8.24707L109.833 11.877ZM126.262 31.8311C126.262 31.0928 125.463 30.7236 123.863 30.7236L121.525 30.8467V17.8857C121.689 17.6807 121.976 17.5781 122.386 17.5781C122.605 17.5781 122.797 17.585 122.961 17.5986C123.111 17.6123 123.268 17.6191 123.432 17.6191C123.747 17.6191 124.007 17.4961 124.212 17.25C124.43 16.9902 124.54 16.6826 124.54 16.3271C124.54 16.0127 124.417 15.7393 124.171 15.5068C123.924 15.2744 123.637 15.1582 123.309 15.1582C122.94 15.1582 122.489 15.2334 121.956 15.3838C121.532 15.4795 121.327 15.5273 121.341 15.5273C121.341 15.1582 121.375 14.3721 121.443 13.1689C121.511 11.9795 121.546 11.166 121.546 10.7285C121.546 10.0586 121.491 8.90332 121.382 7.2627C121.272 5.62207 121.217 4.4668 121.217 3.79688C121.286 3.7832 121.436 3.77637 121.669 3.77637C121.901 3.77637 122.106 3.7832 122.284 3.79688C122.462 3.81055 122.66 3.81738 122.879 3.81738C124.15 3.81738 124.786 3.40039 124.786 2.56641C124.786 2.18359 124.574 1.8623 124.15 1.60254C123.74 1.3291 123.309 1.19238 122.858 1.19238C122.516 1.19238 121.997 1.25391 121.299 1.37695C120.602 1.5 120.083 1.56152 119.741 1.56152C119.508 1.79395 119.16 2.28613 118.695 3.03809V3.18164C118.695 3.63281 118.791 4.35059 118.982 5.33496C119.174 6.31934 119.269 7.03027 119.269 7.46777V31.8721C119.269 32.501 119.502 32.8975 119.966 33.0615C120.185 33.1436 120.383 33.1914 120.561 33.2051C120.753 33.2324 121.019 33.2461 121.361 33.2461H122.674C123.125 33.2461 123.583 33.2324 124.048 33.2051C124.458 33.1641 124.882 33.041 125.319 32.8359C125.77 32.6172 126.085 32.3301 126.262 31.9746V31.8311Z" fill="#161616"/>
</svg>
