<svg width="235" height="38" viewBox="0 0 235 38" fill="none" xmlns="http://www.w3.org/2000/svg">
<path d="M5.15332 13.4043C5.09342 13.1947 4.95117 12.5283 4.72656 11.4053L4.09766 8.23828C3.79818 6.8457 3.52116 5.66276 3.2666 4.68945C3.01204 3.70117 2.74251 2.89258 2.45801 2.26367C2.11361 1.5599 1.79167 1.20801 1.49219 1.20801C1.22266 1.20801 0.960612 1.29036 0.706055 1.45508C0.451497 1.61979 0.324219 1.80697 0.324219 2.0166C0.324219 3.1696 0.496419 4.50228 0.84082 6.01465C1.18522 7.51204 1.60449 8.92708 2.09863 10.2598C2.59277 11.6224 3.01204 13.0599 3.35645 14.5723C3.70085 16.0697 3.87305 17.4023 3.87305 18.5703C3.87305 19.4238 4.02279 20.749 4.32227 22.5459C4.60677 24.2679 4.74902 25.6006 4.74902 26.5439C4.74902 27.3076 4.71159 28.79 4.63672 30.9912C4.56185 33.1924 4.52441 34.6748 4.52441 35.4385C4.52441 35.7529 4.63672 36.015 4.86133 36.2246C5.10091 36.4492 5.37793 36.5615 5.69238 36.5615C6.11165 36.5615 6.47103 36.4342 6.77051 36.1797C7.06999 35.9251 7.21973 35.6032 7.21973 35.2139V34.0459C7.21973 33.7913 7.19727 33.432 7.15234 32.9678C7.09245 32.5485 7.0625 32.1891 7.0625 31.8896C7.0625 30.8415 7.02507 28.805 6.9502 25.7803C6.86035 23.085 6.81543 21.056 6.81543 19.6934V18.9971V18.8398C6.81543 18.6602 6.83789 18.4355 6.88281 18.166C6.92773 17.8216 6.9502 17.5671 6.9502 17.4023C6.9502 15.6055 7.31706 13.015 8.05078 9.63086C8.78451 6.24674 9.15137 3.67871 9.15137 1.92676C9.15137 1.59733 8.74707 1.43262 7.93848 1.43262C7.51921 1.43262 7.15234 1.77702 6.83789 2.46582C6.52344 3.15462 6.27637 4.04557 6.09668 5.13867C5.81217 6.86068 5.57259 8.97201 5.37793 11.4727C5.28809 12.5358 5.21322 13.1797 5.15332 13.4043ZM18.4304 0.399414C17.8464 0.399414 17.2999 0.526693 16.7908 0.78125C16.2966 1.05078 15.8849 1.40267 15.5554 1.83691C15.226 2.25618 14.934 2.79525 14.6795 3.4541C14.2003 4.72689 13.8858 6.17188 13.7361 7.78906C13.5864 9.22656 13.5115 10.8587 13.5115 12.6855L13.5564 15.583C13.5714 16.3916 13.5789 17.2152 13.5789 18.0537C13.5789 18.5329 13.5938 19.3415 13.6238 20.4795C13.6687 21.4678 13.7436 22.6058 13.8484 23.8936C13.9682 25.1663 14.1179 26.3418 14.2976 27.4199C14.4923 28.6478 14.7618 29.8757 15.1062 31.1035C15.4506 32.3314 15.8399 33.3721 16.2742 34.2256C16.7384 35.154 17.3149 35.8952 18.0037 36.4492C18.7074 37.0033 19.4636 37.2803 20.2722 37.2803C21.1257 37.2803 21.8969 36.9209 22.5857 36.2021C23.2595 35.5283 23.7761 34.7347 24.1355 33.8213C24.4949 32.9079 24.6746 32.0244 24.6746 31.1709C24.6746 29.973 24.7719 28.9622 24.9666 28.1387V27.9365C24.9666 27.2926 25.0339 26.3343 25.1687 25.0615C25.3035 23.7738 25.3709 22.793 25.3709 22.1191V19.4688C25.3709 17.6419 25.3185 15.598 25.2136 13.3369C25.1687 12.2139 25.0789 11.1956 24.9441 10.2822C24.8093 9.36882 24.6222 8.32064 24.3826 7.1377C24.1729 6.14941 23.8959 5.27344 23.5515 4.50977C23.2071 3.74609 22.7879 3.01986 22.2937 2.33105C21.8295 1.70215 21.268 1.22298 20.6091 0.893555C19.9503 0.564128 19.224 0.399414 18.4304 0.399414ZM18.655 2.8252C19.1941 2.8252 19.6882 3.03483 20.1375 3.4541C20.6017 3.87337 20.991 4.47982 21.3054 5.27344C21.9643 6.96549 22.421 8.83724 22.6755 10.8887C22.9601 13.3893 23.1397 15.4557 23.2146 17.0879C23.2595 18.5404 23.282 19.9554 23.282 21.333C23.282 22.3063 23.252 23.3245 23.1921 24.3877C23.0873 26.1247 22.9451 27.7493 22.7654 29.2617C22.5857 30.7591 22.3087 32.0169 21.9343 33.0352C21.5001 34.1882 20.976 34.7646 20.3621 34.7646C19.6583 34.7646 19.0219 34.2331 18.4529 33.1699C17.9138 32.1816 17.4721 30.9688 17.1277 29.5312C16.7983 28.0938 16.5063 26.3942 16.2517 24.4326C15.8474 21.4229 15.6453 18.8997 15.6453 16.8633V16.6611C15.6453 16.4964 15.6602 15.6953 15.6902 14.2578L15.7127 13.4043C15.7426 12.1465 15.8549 10.5967 16.0496 8.75488C16.1843 7.3623 16.4838 5.9847 16.948 4.62207C17.3673 3.42415 17.9363 2.8252 18.655 2.8252ZM30.2251 3.76855C30.2251 4.9515 30.2176 6.08203 30.2027 7.16016C30.1877 8.23828 30.1802 9.50358 30.1802 10.9561C30.1802 14.1455 30.2551 17.0879 30.4048 19.7832C30.4946 21.3255 30.6219 22.748 30.7866 24.0508C30.9663 25.3385 31.1984 26.7012 31.4829 28.1387C31.7375 29.4414 32.0744 30.5944 32.4937 31.5977C32.9129 32.6009 33.4146 33.5218 33.9986 34.3604C34.5526 35.1689 35.2114 35.7829 35.9751 36.2021C36.7388 36.6214 37.5848 36.8311 38.5132 36.8311C39.2769 36.8311 39.9582 36.6813 40.5571 36.3818C41.1112 36.0824 41.5454 35.7155 41.8599 35.2812C42.1893 34.832 42.4439 34.2555 42.6236 33.5518C42.7883 32.9079 42.9006 32.2865 42.9605 31.6875C43.0204 31.0885 43.0503 30.3698 43.0503 29.5312C43.0503 26.6562 42.9155 22.6507 42.646 17.5146C42.3615 12.4984 42.2193 8.64258 42.2193 5.94727C42.2193 5.66276 42.2792 5.18359 42.3989 4.50977C42.5038 3.94076 42.5562 3.48405 42.5562 3.13965V2.37598L41.4331 1.29785C40.9989 1.29785 40.6021 1.41764 40.2427 1.65723C39.8833 1.89681 39.7036 2.19629 39.7036 2.55566C39.7036 3.31934 39.7635 4.63704 39.8833 6.50879C39.9881 8.14095 40.0405 9.45117 40.0405 10.4395L40.0855 11.7646L40.1304 13.1123V13.4268C40.1304 14.4749 40.2277 15.9199 40.4224 17.7617C40.617 19.6035 40.7144 21.0485 40.7144 22.0967V31.0811C40.7144 31.5752 40.6994 31.9945 40.6695 32.3389C40.6395 32.6683 40.5721 33.0876 40.4673 33.5967C40.3625 34.1208 40.1678 34.5251 39.8833 34.8096C39.5988 35.0791 39.2394 35.2139 38.8052 35.2139C38.1014 35.2139 37.4201 34.8695 36.7612 34.1807C36.1174 33.4769 35.5933 32.5934 35.189 31.5303C34.8146 30.512 34.5152 29.5088 34.2905 28.5205C34.0659 27.5322 33.9536 26.7012 33.9536 26.0273C33.9536 25.2337 33.8862 24.238 33.7515 23.04C33.6167 21.8421 33.467 21.056 33.3023 20.6816C33.3023 18.8997 33.2349 16.2269 33.1001 12.6631C32.9504 9.27897 32.8755 6.62109 32.8755 4.68945C32.8755 2.50326 32.3215 1.41016 31.2134 1.41016C30.854 1.41016 30.5396 1.55241 30.27 1.83691C30.0155 2.12142 29.8882 2.45085 29.8882 2.8252C29.8882 3.19954 30.0005 3.514 30.2251 3.76855ZM50.8694 16.7061C51.1839 17.9489 51.7454 19.8581 52.554 22.4336C53.4374 25.2637 54.1113 27.682 54.5755 29.6885C55.0546 31.68 55.3391 33.4769 55.429 35.0791V35.2363C55.968 36.0599 56.5221 36.4717 57.0911 36.4717C57.6451 36.4717 57.9746 36.2171 58.0794 35.708C58.1243 35.4834 58.1542 35.2738 58.1692 35.0791C58.1992 34.8844 58.2141 34.6598 58.2141 34.4053V34.293L56.8665 30.2275C56.1777 28.1911 55.6311 26.514 55.2268 25.1963C54.7776 23.7738 54.3733 22.2165 54.0139 20.5244C53.6695 18.8324 53.4899 17.4323 53.4749 16.3242L53.9466 15.1338L54.4856 13.8086C54.9199 12.6406 55.1894 11.7871 55.2942 11.248C55.5039 10.1999 55.6087 9.33887 55.6087 8.66504C55.6087 7.94629 55.5413 7.24251 55.4065 6.55371C55.2568 5.83496 55.0247 5.14616 54.7102 4.4873C54.3958 3.81348 54.0214 3.22201 53.5872 2.71289C53.123 2.1888 52.5615 1.77702 51.9026 1.47754C51.2587 1.17806 50.5624 1.02832 49.8138 1.02832C49.3196 1.02832 48.9902 1.10319 48.8255 1.25293C48.6757 1.3877 48.6009 1.64225 48.6009 2.0166V7.67676C48.6009 11.3304 48.5709 15.8226 48.511 21.1533C48.4511 26.484 48.4212 30.9837 48.4212 34.6523V35.0117C48.4212 35.3711 48.526 35.6781 48.7356 35.9326C48.9602 36.1722 49.2447 36.292 49.5891 36.292C50.0833 36.292 50.4202 36.1722 50.5999 35.9326C50.7796 35.693 50.8694 35.3262 50.8694 34.832V16.7061ZM52.3069 12.8652C51.8128 13.5391 51.2962 14.1305 50.7571 14.6396C50.7272 14.0107 50.7122 13.307 50.7122 12.5283C50.7122 11.4202 50.7571 9.82552 50.847 7.74414C50.9218 5.42318 50.9593 3.88835 50.9593 3.13965C51.2737 3.19954 51.5657 3.41667 51.8352 3.79102C52.1197 4.16536 52.3518 4.62956 52.5315 5.18359C52.8909 6.33659 53.0706 7.36979 53.0706 8.2832C53.0706 8.41797 53.0556 8.62012 53.0257 8.88965L52.3069 12.8652ZM82.4998 34.7646C82.4998 33.6865 81.8634 33.1475 80.5906 33.1475C80.2762 33.1475 79.9617 33.1699 79.6473 33.2148V31.4404C79.6473 28.3258 79.4601 23.8411 79.0857 17.9863C78.7114 12.1315 78.5242 7.64681 78.5242 4.53223C78.5242 4.17285 78.5916 3.92578 78.7264 3.79102C78.8611 3.65625 79.0857 3.58887 79.4002 3.58887H79.7596C79.8794 3.60384 80.0291 3.61133 80.2088 3.61133C80.5232 3.61133 80.7778 3.49154 80.9725 3.25195C81.1821 2.9974 81.2869 2.7054 81.2869 2.37598C81.2869 2.03158 81.1521 1.73958 80.8826 1.5C80.6131 1.24544 80.2986 1.11816 79.9393 1.11816C79.0109 1.11816 77.9253 1.23047 76.6824 1.45508C75.9637 1.58984 75.3797 1.79948 74.9305 2.08398C74.4812 2.35352 74.2566 2.66797 74.2566 3.02734C74.2566 3.76107 74.616 4.12793 75.3348 4.12793C75.6492 4.12793 76.0086 4.06055 76.4129 3.92578C76.4878 4.7194 76.5252 5.57292 76.5252 6.48633L76.4803 8.82227L76.4353 11.1807C76.4353 13.6663 76.5776 17.2077 76.8621 21.8047C77.1466 26.4167 77.2889 29.9655 77.2889 32.4512C77.2889 32.8555 77.2365 33.14 77.1316 33.3047C77.0268 33.4544 76.8546 33.5293 76.615 33.5293L76.1883 33.4844C76.0385 33.4694 75.8589 33.4619 75.6492 33.4619C74.7208 33.4619 74.2566 33.8288 74.2566 34.5625C74.2566 35.4759 75.5818 35.9326 78.2322 35.9326C78.7713 35.9326 79.4077 35.9102 80.1414 35.8652L81.3543 35.8203L82.4998 35.0342V34.7646ZM97.3941 27.5322C96.1662 22.2464 95.1181 17.9788 94.2496 14.7295C92.7073 9.03939 91.427 5.08626 90.4088 2.87012C89.7948 1.53743 89.2782 0.871094 88.8589 0.871094C88.1851 0.871094 87.8482 1.63477 87.8482 3.16211V3.4541C87.8482 4.53223 87.7958 5.93978 87.691 7.67676C87.5862 9.41374 87.5338 10.8213 87.5338 11.8994V17.7617C87.5338 18.6751 87.6311 20.8538 87.8257 24.2979C88.0204 27.7419 88.1177 30.3174 88.1177 32.0244C88.1177 32.5186 88.0803 33.1624 88.0054 33.9561C87.9306 34.7497 87.8931 35.2064 87.8931 35.3262C87.8931 35.8053 88.23 36.0449 88.9039 36.0449C89.3082 36.0449 89.675 35.9476 90.0045 35.7529C90.3489 35.5583 90.5211 35.3262 90.5211 35.0566C90.5211 33.694 90.4162 31.5078 90.2066 28.498C89.982 25.5931 89.8697 23.4069 89.8697 21.9395V6.8457C91.6067 13.7637 93.456 20.5469 95.4175 27.1953C97.2893 33.5143 98.5471 36.6738 99.191 36.6738C99.5504 36.6738 99.8573 36.4492 100.112 36C100.381 35.5658 100.516 35.109 100.516 34.6299V20.5693C100.516 18.443 100.569 15.6055 100.673 12.0566C100.763 8.25326 100.808 5.42318 100.808 3.56641C100.808 3.04232 100.898 2.5931 101.078 2.21875V1.94922C101.078 0.751302 100.666 0.152344 99.8423 0.152344C99.0188 0.152344 98.5172 0.53418 98.3375 1.29785V14.9092C98.3375 17.0804 98.3075 19.7533 98.2476 22.9277C98.1877 26.1022 98.1578 28.7751 98.1578 30.9463L98.1129 30.7217L97.3941 27.5322ZM117.454 35.9551C117.694 36.599 118.203 36.9209 118.982 36.9209C119.311 36.9209 119.581 36.8011 119.79 36.5615C120 36.3219 120.105 36.0225 120.105 35.6631C120.105 34.8096 119.955 33.4469 119.656 31.5752C119.341 29.7484 119.184 28.3783 119.184 27.4648C119.184 26.7611 119.012 26.1771 118.667 25.7129C118.323 25.2487 117.844 25.0166 117.23 25.0166C116.616 25.0166 115.852 25.1139 114.939 25.3086C114.445 25.4134 114.04 25.5781 113.726 25.8027C113.411 26.0124 113.254 26.2594 113.254 26.5439C113.254 27.4124 113.778 27.8467 114.826 27.8467C115.126 27.8467 115.485 27.8167 115.905 27.7568L116.623 27.667C116.848 28.0563 117.02 28.7751 117.14 29.8232C117.275 30.8714 117.35 31.9046 117.365 32.9229C116.466 34.2106 115.336 34.8545 113.973 34.8545C113.269 34.8545 112.633 34.6973 112.064 34.3828C111.495 34.0833 111.016 33.694 110.626 33.2148C110.237 32.7357 109.908 32.1217 109.638 31.373C109.368 30.6543 109.151 29.943 108.987 29.2393C108.837 28.5205 108.717 27.6969 108.627 26.7686C108.537 25.93 108.478 25.1813 108.448 24.5225C108.433 23.8636 108.425 23.07 108.425 22.1416C108.425 21.4977 108.433 20.9661 108.448 20.5469V19.2891C108.448 17.7767 108.478 16.3242 108.537 14.9316C108.567 13.9883 108.62 13.1273 108.695 12.3486C108.784 11.57 108.919 10.5667 109.099 9.33887C109.219 8.38053 109.398 7.51953 109.638 6.75586C109.878 5.99219 110.17 5.236 110.514 4.4873C110.828 3.81348 111.218 3.30436 111.682 2.95996C112.146 2.60059 112.663 2.4209 113.232 2.4209C113.352 2.4209 113.576 2.45833 113.906 2.5332C114.235 2.60807 114.452 2.64551 114.557 2.64551C114.886 2.64551 115.171 2.54818 115.41 2.35352C115.65 2.14388 115.77 1.88184 115.77 1.56738C115.77 0.698893 115.133 0.264648 113.861 0.264648C113.067 0.264648 112.341 0.376953 111.682 0.601562C111.008 0.841146 110.424 1.16309 109.93 1.56738C109.436 1.95671 108.987 2.45085 108.582 3.0498C108.178 3.63379 107.841 4.24772 107.572 4.8916C107.317 5.52051 107.085 6.25423 106.875 7.09277C106.486 8.69499 106.239 10.2972 106.134 11.8994C106.029 13.5915 105.977 15.1712 105.977 16.6387C105.977 17.3424 105.984 17.9489 105.999 18.458V20.0303C105.999 21.0186 106.007 21.7074 106.022 22.0967C106.022 22.7106 106.052 23.5042 106.112 24.4775C106.187 25.4359 106.269 26.2669 106.359 26.9707C106.464 27.8092 106.606 28.6852 106.785 29.5986C106.98 30.4971 107.205 31.2607 107.459 31.8896C107.759 32.6533 108.118 33.3796 108.537 34.0684C108.957 34.7422 109.406 35.2812 109.885 35.6855C110.424 36.1647 111.046 36.5391 111.749 36.8086C112.468 37.0781 113.239 37.2129 114.063 37.2129C114.422 37.2129 114.782 37.153 115.141 37.0332C115.5 36.9134 115.935 36.7113 116.444 36.4268C116.983 36.1273 117.32 35.9551 117.454 35.9102V35.9551ZM126.105 16.7061C126.419 17.9489 126.981 19.8581 127.789 22.4336C128.673 25.2637 129.346 27.682 129.811 29.6885C130.29 31.68 130.574 33.4769 130.664 35.0791V35.2363C131.203 36.0599 131.757 36.4717 132.326 36.4717C132.88 36.4717 133.21 36.2171 133.315 35.708C133.359 35.4834 133.389 35.2738 133.404 35.0791C133.434 34.8844 133.449 34.6598 133.449 34.4053V34.293L132.102 30.2275C131.413 28.1911 130.866 26.514 130.462 25.1963C130.013 23.7738 129.608 22.2165 129.249 20.5244C128.905 18.8324 128.725 17.4323 128.71 16.3242L129.182 15.1338L129.721 13.8086C130.155 12.6406 130.425 11.7871 130.529 11.248C130.739 10.1999 130.844 9.33887 130.844 8.66504C130.844 7.94629 130.776 7.24251 130.642 6.55371C130.492 5.83496 130.26 5.14616 129.945 4.4873C129.631 3.81348 129.257 3.22201 128.822 2.71289C128.358 2.1888 127.797 1.77702 127.138 1.47754C126.494 1.17806 125.798 1.02832 125.049 1.02832C124.555 1.02832 124.225 1.10319 124.061 1.25293C123.911 1.3877 123.836 1.64225 123.836 2.0166V7.67676C123.836 11.3304 123.806 15.8226 123.746 21.1533C123.686 26.484 123.656 30.9837 123.656 34.6523V35.0117C123.656 35.3711 123.761 35.6781 123.971 35.9326C124.195 36.1722 124.48 36.292 124.824 36.292C125.318 36.292 125.655 36.1722 125.835 35.9326C126.015 35.693 126.105 35.3262 126.105 34.832V16.7061ZM127.542 12.8652C127.048 13.5391 126.531 14.1305 125.992 14.6396C125.962 14.0107 125.947 13.307 125.947 12.5283C125.947 11.4202 125.992 9.82552 126.082 7.74414C126.157 5.42318 126.194 3.88835 126.194 3.13965C126.509 3.19954 126.801 3.41667 127.07 3.79102C127.355 4.16536 127.587 4.62956 127.767 5.18359C128.126 6.33659 128.306 7.36979 128.306 8.2832C128.306 8.41797 128.291 8.62012 128.261 8.88965L127.542 12.8652ZM145.536 34.7197C145.536 33.9111 144.66 33.5068 142.908 33.5068L140.348 33.6416V19.4463C140.527 19.2217 140.842 19.1094 141.291 19.1094C141.53 19.1094 141.74 19.1169 141.92 19.1318C142.084 19.1468 142.257 19.1543 142.436 19.1543C142.781 19.1543 143.065 19.0195 143.29 18.75C143.529 18.4655 143.649 18.1286 143.649 17.7393C143.649 17.3949 143.514 17.0954 143.245 16.8408C142.975 16.5863 142.661 16.459 142.302 16.459C141.897 16.459 141.403 16.5413 140.819 16.7061C140.355 16.8109 140.13 16.8633 140.145 16.8633C140.145 16.459 140.183 15.598 140.258 14.2803C140.333 12.9775 140.37 12.0866 140.37 11.6074C140.37 10.8737 140.31 9.6084 140.19 7.81152C140.07 6.01465 140.011 4.74935 140.011 4.01562C140.085 4.00065 140.25 3.99316 140.505 3.99316C140.759 3.99316 140.984 4.00065 141.179 4.01562C141.373 4.0306 141.59 4.03809 141.83 4.03809C143.223 4.03809 143.919 3.58138 143.919 2.66797C143.919 2.2487 143.687 1.89681 143.223 1.6123C142.773 1.31283 142.302 1.16309 141.807 1.16309C141.433 1.16309 140.864 1.23047 140.1 1.36523C139.337 1.5 138.768 1.56738 138.393 1.56738C138.139 1.82194 137.757 2.361 137.248 3.18457V3.3418C137.248 3.83594 137.353 4.62207 137.562 5.7002C137.772 6.77832 137.877 7.55697 137.877 8.03613V34.7646C137.877 35.4535 138.131 35.8877 138.64 36.0674C138.88 36.1572 139.097 36.2096 139.292 36.2246C139.501 36.2546 139.793 36.2695 140.168 36.2695H141.605C142.099 36.2695 142.601 36.2546 143.11 36.2246C143.559 36.1797 144.024 36.0449 144.503 35.8203C144.997 35.5807 145.341 35.2663 145.536 34.877V34.7197ZM152.681 36.1123C153.774 36.1123 154.83 35.7005 155.848 34.877C156.807 34.1133 157.66 33.1325 158.409 31.9346C159.157 30.7217 159.854 29.3141 160.498 27.7119C161.052 26.2744 161.478 24.8818 161.778 23.5342C162.077 22.1865 162.227 21.0186 162.227 20.0303L162.182 19.5811C162.137 19.3714 162.115 19.1917 162.115 19.042C162.115 18.8923 162.152 18.7575 162.227 18.6377V16.5039V15.0439C162.212 14.5199 162.175 13.861 162.115 13.0674C162.055 12.2588 161.988 11.555 161.913 10.9561C161.793 10.2223 161.628 9.4362 161.419 8.59766C161.224 7.74414 160.999 7.00293 160.745 6.37402C160.445 5.65527 160.078 4.96647 159.644 4.30762C159.225 3.63379 158.768 3.08724 158.274 2.66797C157.72 2.20378 157.069 1.83691 156.32 1.56738C155.586 1.28288 154.793 1.14062 153.939 1.14062H153.243C150.892 1.14062 149.716 1.6722 149.716 2.73535C149.716 3.25944 149.889 4.22526 150.233 5.63281C150.562 6.96549 150.727 8.05859 150.727 8.91211C150.727 9.48112 150.705 10.3271 150.66 11.4502C150.615 12.5732 150.592 13.4043 150.592 13.9434C150.592 15.7103 150.735 18.2334 151.019 21.5127C151.304 24.792 151.446 27.3301 151.446 29.127C151.446 32.0319 151.109 33.8363 150.435 34.54C150.435 35.0342 150.652 35.4235 151.087 35.708C151.536 35.9775 152.067 36.1123 152.681 36.1123ZM153.647 29.0371C153.647 26.222 153.467 22.0293 153.108 16.459C152.734 10.9935 152.546 6.82324 152.546 3.94824V3.90332C153.55 3.90332 154.456 4.10547 155.264 4.50977C156.088 4.91406 156.754 5.48307 157.263 6.2168C158.356 7.78906 159.068 9.51855 159.397 11.4053C159.712 13.3369 159.869 15.1413 159.869 16.8184C159.869 19.8581 159.449 22.8903 158.611 25.915C158.147 27.5472 157.48 29.0296 156.612 30.3623C155.758 31.68 154.77 32.7057 153.647 33.4395V29.0371ZM174.741 34.7646C174.741 33.6865 174.104 33.1475 172.831 33.1475C172.517 33.1475 172.202 33.1699 171.888 33.2148V31.4404C171.888 28.3258 171.701 23.8411 171.327 17.9863C170.952 12.1315 170.765 7.64681 170.765 4.53223C170.765 4.17285 170.832 3.92578 170.967 3.79102C171.102 3.65625 171.327 3.58887 171.641 3.58887H172C172.12 3.60384 172.27 3.61133 172.45 3.61133C172.764 3.61133 173.019 3.49154 173.213 3.25195C173.423 2.9974 173.528 2.7054 173.528 2.37598C173.528 2.03158 173.393 1.73958 173.123 1.5C172.854 1.24544 172.539 1.11816 172.18 1.11816C171.252 1.11816 170.166 1.23047 168.923 1.45508C168.204 1.58984 167.62 1.79948 167.171 2.08398C166.722 2.35352 166.497 2.66797 166.497 3.02734C166.497 3.76107 166.857 4.12793 167.576 4.12793C167.89 4.12793 168.249 4.06055 168.654 3.92578C168.729 4.7194 168.766 5.57292 168.766 6.48633L168.721 8.82227L168.676 11.1807C168.676 13.6663 168.818 17.2077 169.103 21.8047C169.387 26.4167 169.53 29.9655 169.53 32.4512C169.53 32.8555 169.477 33.14 169.372 33.3047C169.268 33.4544 169.095 33.5293 168.856 33.5293L168.429 33.4844C168.279 33.4694 168.1 33.4619 167.89 33.4619C166.962 33.4619 166.497 33.8288 166.497 34.5625C166.497 35.4759 167.823 35.9326 170.473 35.9326C171.012 35.9326 171.648 35.9102 172.382 35.8652L173.595 35.8203L174.741 35.0342V34.7646ZM188.063 34.7197C188.063 33.9111 187.187 33.5068 185.435 33.5068L182.874 33.6416V19.4463C183.054 19.2217 183.368 19.1094 183.818 19.1094C184.057 19.1094 184.267 19.1169 184.446 19.1318C184.611 19.1468 184.783 19.1543 184.963 19.1543C185.307 19.1543 185.592 19.0195 185.817 18.75C186.056 18.4655 186.176 18.1286 186.176 17.7393C186.176 17.3949 186.041 17.0954 185.772 16.8408C185.502 16.5863 185.188 16.459 184.828 16.459C184.424 16.459 183.93 16.5413 183.346 16.7061C182.882 16.8109 182.657 16.8633 182.672 16.8633C182.672 16.459 182.709 15.598 182.784 14.2803C182.859 12.9775 182.897 12.0866 182.897 11.6074C182.897 10.8737 182.837 9.6084 182.717 7.81152C182.597 6.01465 182.537 4.74935 182.537 4.01562C182.612 4.00065 182.777 3.99316 183.031 3.99316C183.286 3.99316 183.511 4.00065 183.705 4.01562C183.9 4.0306 184.117 4.03809 184.357 4.03809C185.749 4.03809 186.445 3.58138 186.445 2.66797C186.445 2.2487 186.213 1.89681 185.749 1.6123C185.3 1.31283 184.828 1.16309 184.334 1.16309C183.96 1.16309 183.391 1.23047 182.627 1.36523C181.863 1.5 181.294 1.56738 180.92 1.56738C180.665 1.82194 180.284 2.361 179.775 3.18457V3.3418C179.775 3.83594 179.879 4.62207 180.089 5.7002C180.299 6.77832 180.403 7.55697 180.403 8.03613V34.7646C180.403 35.4535 180.658 35.8877 181.167 36.0674C181.407 36.1572 181.624 36.2096 181.818 36.2246C182.028 36.2546 182.32 36.2695 182.694 36.2695H184.132C184.626 36.2695 185.128 36.2546 185.637 36.2246C186.086 36.1797 186.55 36.0449 187.029 35.8203C187.524 35.5807 187.868 35.2663 188.063 34.877V34.7197ZM203.002 27.5322C201.774 22.2464 200.726 17.9788 199.857 14.7295C198.315 9.03939 197.035 5.08626 196.016 2.87012C195.403 1.53743 194.886 0.871094 194.467 0.871094C193.793 0.871094 193.456 1.63477 193.456 3.16211V3.4541C193.456 4.53223 193.404 5.93978 193.299 7.67676C193.194 9.41374 193.141 10.8213 193.141 11.8994V17.7617C193.141 18.6751 193.239 20.8538 193.433 24.2979C193.628 27.7419 193.725 30.3174 193.725 32.0244C193.725 32.5186 193.688 33.1624 193.613 33.9561C193.538 34.7497 193.501 35.2064 193.501 35.3262C193.501 35.8053 193.838 36.0449 194.512 36.0449C194.916 36.0449 195.283 35.9476 195.612 35.7529C195.957 35.5583 196.129 35.3262 196.129 35.0566C196.129 33.694 196.024 31.5078 195.814 28.498C195.59 25.5931 195.477 23.4069 195.477 21.9395V6.8457C197.214 13.7637 199.064 20.5469 201.025 27.1953C202.897 33.5143 204.155 36.6738 204.799 36.6738C205.158 36.6738 205.465 36.4492 205.72 36C205.989 35.5658 206.124 35.109 206.124 34.6299V20.5693C206.124 18.443 206.176 15.6055 206.281 12.0566C206.371 8.25326 206.416 5.42318 206.416 3.56641C206.416 3.04232 206.506 2.5931 206.685 2.21875V1.94922C206.685 0.751302 206.274 0.152344 205.45 0.152344C204.627 0.152344 204.125 0.53418 203.945 1.29785V14.9092C203.945 17.0804 203.915 19.7533 203.855 22.9277C203.795 26.1022 203.766 28.7751 203.766 30.9463L203.721 30.7217L203.002 27.5322ZM217.627 12.2363L217.672 9.29395C217.672 7.3623 217.567 5.47559 217.357 3.63379C217.432 3.61882 217.589 3.61133 217.829 3.61133L218.637 3.65625L219.468 3.70117C219.873 3.70117 220.202 3.58887 220.457 3.36426C220.726 3.13965 220.861 2.84766 220.861 2.48828C220.861 2.12891 220.711 1.82194 220.412 1.56738C220.112 1.31283 219.768 1.18555 219.379 1.18555C218.899 1.18555 218.263 1.20801 217.469 1.25293C214.954 1.40267 213.142 1.6722 212.034 2.06152C211.3 2.33105 210.933 2.64551 210.933 3.00488C210.933 3.36426 211.083 3.66374 211.382 3.90332C211.682 4.1429 212.034 4.2627 212.438 4.2627C212.678 4.2627 213.112 4.22526 213.741 4.15039L214.931 4.01562C215.216 4.64453 215.358 6.07454 215.358 8.30566C215.358 9.2041 215.351 9.96029 215.336 10.5742L215.291 12.3262C215.291 13.7936 215.395 16.182 215.605 19.4912C215.815 22.8005 215.92 25.1888 215.92 26.6562C215.92 27.3451 215.86 28.5654 215.74 30.3174C215.62 32.0693 215.56 33.2972 215.56 34.001C215.56 34.6299 215.687 35.1764 215.942 35.6406C216.197 36.0898 216.563 36.3145 217.043 36.3145C217.926 36.3145 218.368 35.5658 218.368 34.0684C218.368 33.2598 218.308 31.8822 218.188 29.9355C218.053 28.1087 217.986 26.7311 217.986 25.8027C217.986 24.5749 217.919 22.8079 217.784 20.502C217.649 18.181 217.582 16.4215 217.582 15.2236L217.627 12.2363ZM227.377 7.02539C227.377 6.45638 227.467 5.8724 227.647 5.27344C227.827 4.64453 228.126 4.09798 228.545 3.63379C228.98 3.1696 229.466 2.90755 230.005 2.84766C230.44 3.14714 231.038 3.29688 231.802 3.29688L232.588 2.30859C232.379 1.82943 232.012 1.43262 231.488 1.11816C230.964 0.803711 230.425 0.646484 229.871 0.646484C228.762 0.646484 227.819 1.00586 227.04 1.72461C226.262 2.41341 225.685 3.25195 225.311 4.24023C224.937 5.21354 224.749 6.25423 224.749 7.3623C224.749 8.73991 224.974 10.1624 225.423 11.6299C225.753 12.723 226.142 13.7637 226.591 14.752C227.04 15.7253 227.632 16.9232 228.366 18.3457L229.017 19.626C229.721 21.0186 230.282 22.4411 230.702 23.8936C231.121 25.346 231.33 26.7236 231.33 28.0264C231.33 28.5804 231.256 29.2243 231.106 29.958C230.971 30.6917 230.769 31.4329 230.499 32.1816C230.215 32.9902 229.826 33.6491 229.331 34.1582C228.852 34.6673 228.328 34.9219 227.759 34.9219C227.52 34.9219 227.13 34.8021 226.591 34.5625C226.037 34.3379 225.58 34.2256 225.221 34.2256C224.892 34.2256 224.637 34.3454 224.457 34.585C224.278 34.8096 224.188 35.1016 224.188 35.4609C224.188 35.8503 224.435 36.1647 224.929 36.4043C225.708 36.8086 226.651 37.0107 227.759 37.0107C228.762 37.0107 229.683 36.7412 230.522 36.2021C231.36 35.6631 232.034 34.9368 232.543 34.0234C233.023 33.1549 233.389 32.2266 233.644 31.2383C233.913 30.25 234.048 29.2767 234.048 28.3184C234.048 26.9408 233.891 25.5632 233.577 24.1855C233.262 22.793 232.843 21.5501 232.319 20.457C231.84 19.4388 230.881 17.5146 229.444 14.6846L229.107 14.0107C228.583 12.9775 228.163 11.8545 227.849 10.6416C227.535 9.41374 227.377 8.20833 227.377 7.02539Z" fill="#161616"/>
</svg>
