<svg width="137" height="7" viewBox="0 0 137 7" fill="none" xmlns="http://www.w3.org/2000/svg">
<path d="M2 5C7.52177 5 12.8474 4.14286 18.3384 4.14286C21.0013 4.14286 23.694 3.28571 26.3642 3.28571C30.8621 3.28571 35.2151 4.14286 39.5496 4.14286C45.0382 4.14286 50.5267 4.14286 56.0153 4.14286C61.1635 4.14286 67.518 4.90113 72.5129 4.04762C77.1116 3.26182 82.3764 3.16962 87.0996 2.83333C90.0837 2.62087 93.2736 2 96.272 2C100.657 2 104.41 2.85714 108.916 2.85714C111.236 2.85714 113.2 3.28571 115.509 3.28571C118.013 3.28571 120.06 4.04617 122.388 4.14286C126.562 4.31624 130.818 4.14286 135 4.14286" stroke="#44AF69" stroke-width="3" stroke-linecap="round" stroke-linejoin="round"/>
</svg>
