<svg width="141" height="5" viewBox="0 0 141 5" fill="none" xmlns="http://www.w3.org/2000/svg">
<path d="M2 3C7.68784 3 13.1736 2.71429 18.8297 2.71429C21.5727 2.71429 24.3465 2.42857 27.097 2.42857C31.7302 2.42857 36.214 2.71429 40.6789 2.71429C46.3325 2.71429 51.9862 2.71429 57.6398 2.71429C62.9428 2.71429 69.4885 2.96704 74.6336 2.68254C79.3706 2.42061 84.7937 2.38987 89.659 2.27778C92.7328 2.20696 96.0187 2 99.1073 2C103.624 2 107.49 2.28571 112.131 2.28571C114.521 2.28571 116.544 2.42857 118.922 2.42857C121.502 2.42857 123.611 2.68206 126.009 2.71429C130.309 2.77208 134.692 2.71429 139 2.71429" stroke="#FF3055" stroke-width="3" stroke-linecap="round" stroke-linejoin="round"/>
</svg>
