<svg width="302" height="7" viewBox="0 0 302 7" fill="none" xmlns="http://www.w3.org/2000/svg">
<path d="M2 5C14.3721 5 26.3047 4.14286 38.6078 4.14286C44.5743 4.14286 50.6077 3.28571 56.5905 3.28571C66.6685 3.28571 76.4218 4.14286 86.1336 4.14286C98.4314 4.14286 110.729 4.14286 123.027 4.14286C134.562 4.14286 148.8 4.90113 159.991 4.04762C170.295 3.26182 182.091 3.16962 192.674 2.83333C199.36 2.62087 206.508 2 213.226 2C223.051 2 231.461 2.85714 241.556 2.85714C246.754 2.85714 251.154 3.28571 256.328 3.28571C261.939 3.28571 266.525 4.04617 271.741 4.14286C281.095 4.31624 290.63 4.14286 300 4.14286" stroke="#FF3055" stroke-width="3" stroke-linecap="round" stroke-linejoin="round"/>
</svg>
