<svg width="17" height="19" viewBox="0 0 17 19" fill="none" xmlns="http://www.w3.org/2000/svg">
<path fill-rule="evenodd" clip-rule="evenodd" d="M1.99996 7.5C1.99996 10.5376 4.4624 13 7.49996 13C10.5375 13 13 10.5376 13 7.5C13 4.46243 10.5375 2 7.49996 2C4.4624 2 1.99996 4.46243 1.99996 7.5ZM-3.8147e-05 7.5C-3.8147e-05 11.6421 3.35783 15 7.49996 15C8.9412 15 10.2875 14.5935 11.4304 13.8888L15.2191 18.6247C15.5641 19.056 16.1934 19.1259 16.6247 18.7809C17.0559 18.4359 17.1258 17.8066 16.7808 17.3753L12.9784 12.6222C14.2323 11.2816 15 9.48047 15 7.5C15 3.35786 11.6421 0 7.49996 0C3.35783 0 -3.8147e-05 3.35786 -3.8147e-05 7.5Z" fill="#4A4A4A"/>
</svg>
