<svg width="24" height="27" viewBox="0 0 24 27" fill="none" xmlns="http://www.w3.org/2000/svg">
<path fill-rule="evenodd" clip-rule="evenodd" d="M1.99997 10.672C1.99997 15.4613 5.88254 19.3439 10.6719 19.3439C15.4613 19.3439 19.3439 15.4613 19.3439 10.672C19.3439 5.88257 15.4613 2 10.6719 2C5.88254 2 1.99997 5.88257 1.99997 10.672ZM-2.67029e-05 10.672C-2.67029e-05 16.5659 4.77797 21.3439 10.6719 21.3439C12.875 21.3439 14.9222 20.6763 16.6222 19.5324L21.986 26.2371C22.331 26.6684 22.9603 26.7383 23.3916 26.3933C23.8228 26.0483 23.8927 25.419 23.5477 24.9877L18.1702 18.2658C20.1296 16.3309 21.3439 13.6432 21.3439 10.672C21.3439 4.778 16.5659 0 10.6719 0C4.77797 0 -2.67029e-05 4.778 -2.67029e-05 10.672Z" fill="#161616"/>
</svg>
