<svg width="293" height="38" viewBox="0 0 293 38" fill="none" xmlns="http://www.w3.org/2000/svg">
<path d="M3.92969 36.1123C5.02279 36.1123 6.07845 35.7005 7.09668 34.877C8.05501 34.1133 8.90853 33.1325 9.65723 31.9346C10.4059 30.7217 11.1022 29.3141 11.7461 27.7119C12.3001 26.2744 12.7269 24.8818 13.0264 23.5342C13.3258 22.1865 13.4756 21.0186 13.4756 20.0303L13.4307 19.5811C13.3857 19.3714 13.3633 19.1917 13.3633 19.042C13.3633 18.8923 13.4007 18.7575 13.4756 18.6377V16.5039V15.0439C13.4606 14.5199 13.4232 13.861 13.3633 13.0674C13.3034 12.2588 13.236 11.555 13.1611 10.9561C13.0413 10.2223 12.8766 9.4362 12.667 8.59766C12.4723 7.74414 12.2477 7.00293 11.9932 6.37402C11.6937 5.65527 11.3268 4.96647 10.8926 4.30762C10.4733 3.63379 10.0166 3.08724 9.52246 2.66797C8.96842 2.20378 8.31706 1.83691 7.56836 1.56738C6.83464 1.28288 6.04102 1.14062 5.1875 1.14062H4.49121C2.1403 1.14062 0.964844 1.6722 0.964844 2.73535C0.964844 3.25944 1.13704 4.22526 1.48145 5.63281C1.81087 6.96549 1.97559 8.05859 1.97559 8.91211C1.97559 9.48112 1.95312 10.3271 1.9082 11.4502C1.86328 12.5732 1.84082 13.4043 1.84082 13.9434C1.84082 15.7103 1.98307 18.2334 2.26758 21.5127C2.55208 24.792 2.69434 27.3301 2.69434 29.127C2.69434 32.0319 2.35742 33.8363 1.68359 34.54C1.68359 35.0342 1.90072 35.4235 2.33496 35.708C2.78418 35.9775 3.31576 36.1123 3.92969 36.1123ZM4.89551 29.0371C4.89551 26.222 4.71582 22.0293 4.35645 16.459C3.9821 10.9935 3.79492 6.82324 3.79492 3.94824V3.90332C4.79818 3.90332 5.7041 4.10547 6.5127 4.50977C7.33626 4.91406 8.0026 5.48307 8.51172 6.2168C9.60482 7.78906 10.3161 9.51855 10.6455 11.4053C10.96 13.3369 11.1172 15.1413 11.1172 16.8184C11.1172 19.8581 10.6979 22.8903 9.85938 25.915C9.39518 27.5472 8.72884 29.0296 7.86035 30.3623C7.00684 31.68 6.01855 32.7057 4.89551 33.4395V29.0371ZM21.0925 16.7061C21.407 17.9489 21.9685 19.8581 22.7771 22.4336C23.6606 25.2637 24.3344 27.682 24.7986 29.6885C25.2778 31.68 25.5623 33.4769 25.6521 35.0791V35.2363C26.1912 36.0599 26.7452 36.4717 27.3142 36.4717C27.8683 36.4717 28.1977 36.2171 28.3025 35.708C28.3474 35.4834 28.3774 35.2738 28.3923 35.0791C28.4223 34.8844 28.4373 34.6598 28.4373 34.4053V34.293L27.0896 30.2275C26.4008 28.1911 25.8543 26.514 25.45 25.1963C25.0007 23.7738 24.5964 22.2165 24.2371 20.5244C23.8927 18.8324 23.713 17.4323 23.698 16.3242L24.1697 15.1338L24.7087 13.8086C25.143 12.6406 25.4125 11.7871 25.5173 11.248C25.727 10.1999 25.8318 9.33887 25.8318 8.66504C25.8318 7.94629 25.7644 7.24251 25.6296 6.55371C25.4799 5.83496 25.2478 5.14616 24.9334 4.4873C24.6189 3.81348 24.2446 3.22201 23.8103 2.71289C23.3461 2.1888 22.7846 1.77702 22.1257 1.47754C21.4819 1.17806 20.7856 1.02832 20.0369 1.02832C19.5427 1.02832 19.2133 1.10319 19.0486 1.25293C18.8989 1.3877 18.824 1.64225 18.824 2.0166V7.67676C18.824 11.3304 18.794 15.8226 18.7341 21.1533C18.6742 26.484 18.6443 30.9837 18.6443 34.6523V35.0117C18.6443 35.3711 18.7491 35.6781 18.9587 35.9326C19.1834 36.1722 19.4679 36.292 19.8123 36.292C20.3064 36.292 20.6433 36.1722 20.823 35.9326C21.0027 35.693 21.0925 35.3262 21.0925 34.832V16.7061ZM22.53 12.8652C22.0359 13.5391 21.5193 14.1305 20.9802 14.6396C20.9503 14.0107 20.9353 13.307 20.9353 12.5283C20.9353 11.4202 20.9802 9.82552 21.0701 7.74414C21.1449 5.42318 21.1824 3.88835 21.1824 3.13965C21.4968 3.19954 21.7888 3.41667 22.0584 3.79102C22.3429 4.16536 22.575 4.62956 22.7546 5.18359C23.114 6.33659 23.2937 7.36979 23.2937 8.2832C23.2937 8.41797 23.2787 8.62012 23.2488 8.88965L22.53 12.8652ZM39.7603 34.7646C39.7603 33.6865 39.1239 33.1475 37.8511 33.1475C37.5366 33.1475 37.2222 33.1699 36.9077 33.2148V31.4404C36.9077 28.3258 36.7206 23.8411 36.3462 17.9863C35.9719 12.1315 35.7847 7.64681 35.7847 4.53223C35.7847 4.17285 35.8521 3.92578 35.9868 3.79102C36.1216 3.65625 36.3462 3.58887 36.6607 3.58887H37.02C37.1398 3.60384 37.2896 3.61133 37.4693 3.61133C37.7837 3.61133 38.0383 3.49154 38.2329 3.25195C38.4426 2.9974 38.5474 2.7054 38.5474 2.37598C38.5474 2.03158 38.4126 1.73958 38.1431 1.5C37.8736 1.24544 37.5591 1.11816 37.1997 1.11816C36.2713 1.11816 35.1857 1.23047 33.9429 1.45508C33.2241 1.58984 32.6402 1.79948 32.1909 2.08398C31.7417 2.35352 31.5171 2.66797 31.5171 3.02734C31.5171 3.76107 31.8765 4.12793 32.5952 4.12793C32.9097 4.12793 33.2691 4.06055 33.6734 3.92578C33.7482 4.7194 33.7857 5.57292 33.7857 6.48633L33.7407 8.82227L33.6958 11.1807C33.6958 13.6663 33.8381 17.2077 34.1226 21.8047C34.4071 26.4167 34.5493 29.9655 34.5493 32.4512C34.5493 32.8555 34.4969 33.14 34.3921 33.3047C34.2873 33.4544 34.1151 33.5293 33.8755 33.5293L33.4487 33.4844C33.299 33.4694 33.1193 33.4619 32.9097 33.4619C31.9813 33.4619 31.5171 33.8288 31.5171 34.5625C31.5171 35.4759 32.8423 35.9326 35.4927 35.9326C36.0318 35.9326 36.6682 35.9102 37.4019 35.8652L38.6148 35.8203L39.7603 35.0342V34.7646ZM54.6546 27.5322C53.4267 22.2464 52.3785 17.9788 51.51 14.7295C49.9677 9.03939 48.6874 5.08626 47.6692 2.87012C47.0553 1.53743 46.5387 0.871094 46.1194 0.871094C45.4456 0.871094 45.1087 1.63477 45.1087 3.16211V3.4541C45.1087 4.53223 45.0563 5.93978 44.9514 7.67676C44.8466 9.41374 44.7942 10.8213 44.7942 11.8994V17.7617C44.7942 18.6751 44.8916 20.8538 45.0862 24.2979C45.2809 27.7419 45.3782 30.3174 45.3782 32.0244C45.3782 32.5186 45.3408 33.1624 45.2659 33.9561C45.191 34.7497 45.1536 35.2064 45.1536 35.3262C45.1536 35.8053 45.4905 36.0449 46.1643 36.0449C46.5686 36.0449 46.9355 35.9476 47.2649 35.7529C47.6093 35.5583 47.7815 35.3262 47.7815 35.0566C47.7815 33.694 47.6767 31.5078 47.4671 28.498C47.2425 25.5931 47.1302 23.4069 47.1302 21.9395V6.8457C48.8671 13.7637 50.7164 20.5469 52.678 27.1953C54.5498 33.5143 55.8076 36.6738 56.4514 36.6738C56.8108 36.6738 57.1178 36.4492 57.3723 36C57.6419 35.5658 57.7766 35.109 57.7766 34.6299V20.5693C57.7766 18.443 57.8291 15.6055 57.9339 12.0566C58.0237 8.25326 58.0686 5.42318 58.0686 3.56641C58.0686 3.04232 58.1585 2.5931 58.3382 2.21875V1.94922C58.3382 0.751302 57.9264 0.152344 57.1028 0.152344C56.2792 0.152344 55.7776 0.53418 55.5979 1.29785V14.9092C55.5979 17.0804 55.568 19.7533 55.5081 22.9277C55.4482 26.1022 55.4182 28.7751 55.4182 30.9463L55.3733 30.7217L54.6546 27.5322ZM63.2373 2.84766C63.2373 3.70117 63.3496 5.13118 63.5743 7.1377C63.7989 9.12923 63.9112 10.8962 63.9112 12.4385C63.9112 14.2803 63.9037 15.875 63.8887 17.2227L63.8438 21.1758C63.8438 22.6432 63.7465 24.7096 63.5518 27.375C63.3422 30.235 63.2373 32.3014 63.2373 33.5742C63.2373 35.2962 63.6866 36.1572 64.585 36.1572C65.6332 36.1572 66.1573 35.3411 66.1573 33.709V29.9355C66.1573 28.9772 66.1123 27.5547 66.0225 25.668C65.9177 23.901 65.8653 22.4785 65.8653 21.4004C65.8653 20.9062 65.8802 20.472 65.9102 20.0977C65.9551 19.7083 65.9851 19.4762 66 19.4014C66.03 19.0719 66.1947 18.6152 66.4942 18.0312C66.8835 17.2526 67.198 16.6536 67.4375 16.2344C68.6954 19.0046 69.736 21.9694 70.5596 25.1289C71.3982 28.2734 72.2292 32.1966 73.0528 36.8984C73.1726 36.8984 73.3448 36.9284 73.5694 36.9883C73.794 37.0482 73.9812 37.0781 74.1309 37.0781C74.5052 37.0781 74.8422 36.9434 75.1416 36.6738C75.4411 36.4193 75.5909 36.1123 75.5909 35.7529C75.5909 35.3786 74.5951 32.0544 72.6036 25.7803C70.627 19.4912 69.3991 15.7477 68.92 14.5498V13.7412C69.1296 12.7979 70.073 10.5742 71.75 7.07031C73.4121 3.56641 74.2432 1.66471 74.2432 1.36523C74.2432 1.02083 74.1159 0.736328 73.8614 0.511719C73.6068 0.272135 73.2998 0.152344 72.9405 0.152344C72.656 0.152344 72.2517 0.571615 71.7276 1.41016C71.2035 2.2487 70.6495 3.33431 70.0655 4.66699C68.9424 7.24251 67.8942 9.79557 66.9209 12.3262C66.4118 13.6589 66.1198 14.4076 66.045 14.5723L66.2471 5.11621C66.2471 2.63053 65.6781 1.3877 64.5401 1.3877C64.1807 1.3877 63.8737 1.52995 63.6192 1.81445C63.3646 2.09896 63.2373 2.44336 63.2373 2.84766ZM82.2645 7.02539C82.2645 6.45638 82.3543 5.8724 82.534 5.27344C82.7137 4.64453 83.0131 4.09798 83.4324 3.63379C83.8667 3.1696 84.3533 2.90755 84.8924 2.84766C85.3266 3.14714 85.9256 3.29688 86.6893 3.29688L87.4754 2.30859C87.2658 1.82943 86.8989 1.43262 86.3748 1.11816C85.8507 0.803711 85.3117 0.646484 84.7576 0.646484C83.6495 0.646484 82.7062 1.00586 81.9275 1.72461C81.1489 2.41341 80.5724 3.25195 80.198 4.24023C79.8237 5.21354 79.6365 6.25423 79.6365 7.3623C79.6365 8.73991 79.8611 10.1624 80.3103 11.6299C80.6398 12.723 81.0291 13.7637 81.4783 14.752C81.9275 15.7253 82.519 16.9232 83.2527 18.3457L83.9041 19.626C84.6079 21.0186 85.1694 22.4411 85.5887 23.8936C86.0079 25.346 86.2176 26.7236 86.2176 28.0264C86.2176 28.5804 86.1427 29.2243 85.993 29.958C85.8582 30.6917 85.6561 31.4329 85.3865 32.1816C85.102 32.9902 84.7127 33.6491 84.2186 34.1582C83.7394 34.6673 83.2153 34.9219 82.6463 34.9219C82.4067 34.9219 82.0174 34.8021 81.4783 34.5625C80.9243 34.3379 80.4676 34.2256 80.1082 34.2256C79.7788 34.2256 79.5242 34.3454 79.3445 34.585C79.1648 34.8096 79.075 35.1016 79.075 35.4609C79.075 35.8503 79.3221 36.1647 79.8162 36.4043C80.5949 36.8086 81.5382 37.0107 82.6463 37.0107C83.6495 37.0107 84.5704 36.7412 85.409 36.2021C86.2475 35.6631 86.9214 34.9368 87.4305 34.0234C87.9096 33.1549 88.2765 32.2266 88.5311 31.2383C88.8006 30.25 88.9353 29.2767 88.9353 28.3184C88.9353 26.9408 88.7781 25.5632 88.4637 24.1855C88.1492 22.793 87.7299 21.5501 87.2059 20.457C86.7267 19.4388 85.7684 17.5146 84.3309 14.6846L83.9939 14.0107C83.4699 12.9775 83.0506 11.8545 82.7361 10.6416C82.4217 9.41374 82.2645 8.20833 82.2645 7.02539ZM111.042 13.4043C110.982 13.1947 110.84 12.5283 110.616 11.4053L109.987 8.23828C109.687 6.8457 109.41 5.66276 109.156 4.68945C108.901 3.70117 108.631 2.89258 108.347 2.26367C108.003 1.5599 107.681 1.20801 107.381 1.20801C107.112 1.20801 106.85 1.29036 106.595 1.45508C106.34 1.61979 106.213 1.80697 106.213 2.0166C106.213 3.1696 106.385 4.50228 106.73 6.01465C107.074 7.51204 107.493 8.92708 107.988 10.2598C108.482 11.6224 108.901 13.0599 109.245 14.5723C109.59 16.0697 109.762 17.4023 109.762 18.5703C109.762 19.4238 109.912 20.749 110.211 22.5459C110.496 24.2679 110.638 25.6006 110.638 26.5439C110.638 27.3076 110.601 28.79 110.526 30.9912C110.451 33.1924 110.413 34.6748 110.413 35.4385C110.413 35.7529 110.526 36.015 110.75 36.2246C110.99 36.4492 111.267 36.5615 111.581 36.5615C112.001 36.5615 112.36 36.4342 112.659 36.1797C112.959 35.9251 113.109 35.6032 113.109 35.2139V34.0459C113.109 33.7913 113.086 33.432 113.041 32.9678C112.981 32.5485 112.951 32.1891 112.951 31.8896C112.951 30.8415 112.914 28.805 112.839 25.7803C112.749 23.085 112.704 21.056 112.704 19.6934V18.9971V18.8398C112.704 18.6602 112.727 18.4355 112.772 18.166C112.817 17.8216 112.839 17.5671 112.839 17.4023C112.839 15.6055 113.206 13.015 113.94 9.63086C114.673 6.24674 115.04 3.67871 115.04 1.92676C115.04 1.59733 114.636 1.43262 113.827 1.43262C113.408 1.43262 113.041 1.77702 112.727 2.46582C112.412 3.15462 112.165 4.04557 111.986 5.13867C111.701 6.86068 111.462 8.97201 111.267 11.4727C111.177 12.5358 111.102 13.1797 111.042 13.4043ZM124.319 0.399414C123.735 0.399414 123.189 0.526693 122.68 0.78125C122.186 1.05078 121.774 1.40267 121.444 1.83691C121.115 2.25618 120.823 2.79525 120.568 3.4541C120.089 4.72689 119.775 6.17188 119.625 7.78906C119.475 9.22656 119.4 10.8587 119.4 12.6855L119.445 15.583C119.46 16.3916 119.468 17.2152 119.468 18.0537C119.468 18.5329 119.483 19.3415 119.513 20.4795C119.558 21.4678 119.633 22.6058 119.737 23.8936C119.857 25.1663 120.007 26.3418 120.187 27.4199C120.381 28.6478 120.651 29.8757 120.995 31.1035C121.34 32.3314 121.729 33.3721 122.163 34.2256C122.627 35.154 123.204 35.8952 123.893 36.4492C124.596 37.0033 125.353 37.2803 126.161 37.2803C127.015 37.2803 127.786 36.9209 128.475 36.2021C129.149 35.5283 129.665 34.7347 130.024 33.8213C130.384 32.9079 130.564 32.0244 130.564 31.1709C130.564 29.973 130.661 28.9622 130.856 28.1387V27.9365C130.856 27.2926 130.923 26.3343 131.058 25.0615C131.192 23.7738 131.26 22.793 131.26 22.1191V19.4688C131.26 17.6419 131.207 15.598 131.103 13.3369C131.058 12.2139 130.968 11.1956 130.833 10.2822C130.698 9.36882 130.511 8.32064 130.272 7.1377C130.062 6.14941 129.785 5.27344 129.441 4.50977C129.096 3.74609 128.677 3.01986 128.183 2.33105C127.719 1.70215 127.157 1.22298 126.498 0.893555C125.839 0.564128 125.113 0.399414 124.319 0.399414ZM124.544 2.8252C125.083 2.8252 125.577 3.03483 126.026 3.4541C126.491 3.87337 126.88 4.47982 127.194 5.27344C127.853 6.96549 128.31 8.83724 128.565 10.8887C128.849 13.3893 129.029 15.4557 129.104 17.0879C129.149 18.5404 129.171 19.9554 129.171 21.333C129.171 22.3063 129.141 23.3245 129.081 24.3877C128.976 26.1247 128.834 27.7493 128.654 29.2617C128.475 30.7591 128.198 32.0169 127.823 33.0352C127.389 34.1882 126.865 34.7646 126.251 34.7646C125.547 34.7646 124.911 34.2331 124.342 33.1699C123.803 32.1816 123.361 30.9688 123.017 29.5312C122.687 28.0938 122.395 26.3942 122.141 24.4326C121.736 21.4229 121.534 18.8997 121.534 16.8633V16.6611C121.534 16.4964 121.549 15.6953 121.579 14.2578L121.602 13.4043C121.632 12.1465 121.744 10.5967 121.939 8.75488C122.073 7.3623 122.373 5.9847 122.837 4.62207C123.256 3.42415 123.825 2.8252 124.544 2.8252ZM136.114 3.76855C136.114 4.9515 136.107 6.08203 136.092 7.16016C136.077 8.23828 136.069 9.50358 136.069 10.9561C136.069 14.1455 136.144 17.0879 136.294 19.7832C136.384 21.3255 136.511 22.748 136.676 24.0508C136.855 25.3385 137.087 26.7012 137.372 28.1387C137.626 29.4414 137.963 30.5944 138.383 31.5977C138.802 32.6009 139.304 33.5218 139.888 34.3604C140.442 35.1689 141.1 35.7829 141.864 36.2021C142.628 36.6214 143.474 36.8311 144.402 36.8311C145.166 36.8311 145.847 36.6813 146.446 36.3818C147 36.0824 147.434 35.7155 147.749 35.2812C148.078 34.832 148.333 34.2555 148.513 33.5518C148.677 32.9079 148.79 32.2865 148.849 31.6875C148.909 31.0885 148.939 30.3698 148.939 29.5312C148.939 26.6562 148.805 22.6507 148.535 17.5146C148.25 12.4984 148.108 8.64258 148.108 5.94727C148.108 5.66276 148.168 5.18359 148.288 4.50977C148.393 3.94076 148.445 3.48405 148.445 3.13965V2.37598L147.322 1.29785C146.888 1.29785 146.491 1.41764 146.132 1.65723C145.772 1.89681 145.593 2.19629 145.593 2.55566C145.593 3.31934 145.653 4.63704 145.772 6.50879C145.877 8.14095 145.93 9.45117 145.93 10.4395L145.974 11.7646L146.019 13.1123V13.4268C146.019 14.4749 146.117 15.9199 146.311 17.7617C146.506 19.6035 146.603 21.0485 146.603 22.0967V31.0811C146.603 31.5752 146.588 31.9945 146.558 32.3389C146.528 32.6683 146.461 33.0876 146.356 33.5967C146.251 34.1208 146.057 34.5251 145.772 34.8096C145.488 35.0791 145.128 35.2139 144.694 35.2139C143.99 35.2139 143.309 34.8695 142.65 34.1807C142.006 33.4769 141.482 32.5934 141.078 31.5303C140.704 30.512 140.404 29.5088 140.18 28.5205C139.955 27.5322 139.843 26.7012 139.843 26.0273C139.843 25.2337 139.775 24.238 139.64 23.04C139.506 21.8421 139.356 21.056 139.191 20.6816C139.191 18.8997 139.124 16.2269 138.989 12.6631C138.839 9.27897 138.764 6.62109 138.764 4.68945C138.764 2.50326 138.21 1.41016 137.102 1.41016C136.743 1.41016 136.429 1.55241 136.159 1.83691C135.904 2.12142 135.777 2.45085 135.777 2.8252C135.777 3.19954 135.889 3.514 136.114 3.76855ZM178.279 32.2715C177.919 32.2715 177.343 32.541 176.549 33.0801C175.771 33.6341 175.119 33.9111 174.595 33.9111C173.322 33.9111 172.327 33.3421 171.608 32.2041C171.218 31.5902 170.897 30.9613 170.642 30.3174C170.402 29.6735 170.2 28.9173 170.036 28.0488C169.856 27.0456 169.714 26.1621 169.609 25.3984C169.519 24.6348 169.459 23.7663 169.429 22.793C169.354 21.071 169.317 19.4313 169.317 17.874V16.7734C169.317 16.4141 169.384 15.875 169.519 15.1562C169.654 14.4525 169.721 13.9209 169.721 13.5615C169.721 13.2021 169.699 12.6781 169.654 11.9893C169.609 11.2855 169.586 10.7539 169.586 10.3945C169.586 9.66081 169.594 9.16667 169.609 8.91211C169.624 8.49284 169.661 8.01367 169.721 7.47461C169.796 6.93555 169.886 6.50879 169.991 6.19434C170.125 5.80501 170.305 5.43066 170.53 5.07129C170.754 4.71191 171.009 4.42741 171.293 4.21777C172.027 3.72363 172.97 3.47656 174.123 3.47656V3.58887H174.752V3.56641C174.842 3.73112 175.059 3.86589 175.404 3.9707C175.748 4.07552 176.077 4.12793 176.392 4.12793C176.751 4.12793 177.051 4.03809 177.29 3.8584C177.545 3.66374 177.672 3.40918 177.672 3.09473C177.672 2.66048 177.508 2.27865 177.178 1.94922C176.864 1.60482 176.452 1.33529 175.943 1.14062C175.449 0.945964 174.954 0.848633 174.46 0.848633C173.083 0.848633 171.832 1.10319 170.709 1.6123C169.601 2.12142 168.725 2.84766 168.081 3.79102C167.452 4.7194 167.138 5.79753 167.138 7.02539C167.138 7.48958 167.183 7.96875 167.273 8.46289C167.063 9.58594 166.958 11.001 166.958 12.708C166.958 13.6064 166.951 14.4674 166.936 15.291C166.921 16.1146 166.913 17.0879 166.913 18.2109C166.913 19.5586 166.936 20.7715 166.981 21.8496C167.011 23.0625 167.086 24.3203 167.205 25.623C167.325 26.9108 167.482 28.0264 167.677 28.9697C167.902 30.0628 168.194 31.111 168.553 32.1143C168.912 33.1025 169.317 33.9036 169.766 34.5176C170.275 35.2064 170.889 35.7454 171.608 36.1348C172.327 36.5391 173.12 36.7412 173.989 36.7412C174.438 36.7412 174.939 36.7038 175.494 36.6289C176.003 36.554 176.512 36.4268 177.021 36.2471C177.53 36.0674 177.972 35.8428 178.346 35.5732C178.735 35.2887 179.042 34.9219 179.267 34.4727C179.507 34.0234 179.626 33.5218 179.626 32.9678C179.162 32.5036 178.713 32.2715 178.279 32.2715ZM194.498 35.9775C194.004 35.9775 193.645 35.8877 193.42 35.708C193.195 35.5283 193.083 35.2214 193.083 34.7871V28.79C192.679 28.5055 191.93 28.2585 190.837 28.0488C189.759 27.8242 188.718 27.682 187.715 27.6221C187.415 28.1312 187.161 28.9098 186.951 29.958L186.817 30.6543C186.577 31.8822 186.36 32.8779 186.165 33.6416C185.97 34.4053 185.731 35.0192 185.446 35.4834C184.263 35.4834 183.59 35.1764 183.425 34.5625C183.709 34.1582 184.091 32.7207 184.57 30.25C184.975 28.1387 185.476 25.3311 186.075 21.8271C186.764 17.7542 187.393 14.3327 187.962 11.5625C188.531 8.77734 189.13 6.43392 189.759 4.53223C190.448 2.40592 191.122 1.34277 191.78 1.34277C192.424 1.34277 192.918 1.47754 193.263 1.74707C193.263 2.88509 193.562 5.84245 194.161 10.6191C194.76 15.3958 195.06 18.5404 195.06 20.0527C195.06 21.4902 195.224 23.8112 195.554 27.0156C195.868 30.3099 196.026 32.7806 196.026 34.4277C196.026 35.4609 195.516 35.9775 194.498 35.9775ZM192.095 26.0947C192.364 26.0947 192.679 26.0498 193.038 25.96C192.993 25.3011 192.836 23.6315 192.567 20.9512C191.863 13.8535 191.511 9.61589 191.511 8.23828C191.511 8.01367 191.518 7.87891 191.533 7.83398C191.234 8.13346 190.815 9.51855 190.276 11.9893C189.736 14.46 189.235 17.1178 188.771 19.9629C188.306 22.793 188.052 24.6647 188.007 25.5781C189.31 25.9225 190.672 26.0947 192.095 26.0947ZM210.156 27.5322C208.928 22.2464 207.88 17.9788 207.012 14.7295C205.469 9.03939 204.189 5.08626 203.171 2.87012C202.557 1.53743 202.04 0.871094 201.621 0.871094C200.947 0.871094 200.61 1.63477 200.61 3.16211V3.4541C200.61 4.53223 200.558 5.93978 200.453 7.67676C200.348 9.41374 200.296 10.8213 200.296 11.8994V17.7617C200.296 18.6751 200.393 20.8538 200.588 24.2979C200.782 27.7419 200.88 30.3174 200.88 32.0244C200.88 32.5186 200.842 33.1624 200.767 33.9561C200.693 34.7497 200.655 35.2064 200.655 35.3262C200.655 35.8053 200.992 36.0449 201.666 36.0449C202.07 36.0449 202.437 35.9476 202.766 35.7529C203.111 35.5583 203.283 35.3262 203.283 35.0566C203.283 33.694 203.178 31.5078 202.969 28.498C202.744 25.5931 202.632 23.4069 202.632 21.9395V6.8457C204.369 13.7637 206.218 20.5469 208.18 27.1953C210.051 33.5143 211.309 36.6738 211.953 36.6738C212.312 36.6738 212.619 36.4492 212.874 36C213.143 35.5658 213.278 35.109 213.278 34.6299V20.5693C213.278 18.443 213.331 15.6055 213.435 12.0566C213.525 8.25326 213.57 5.42318 213.57 3.56641C213.57 3.04232 213.66 2.5931 213.84 2.21875V1.94922C213.84 0.751302 213.428 0.152344 212.604 0.152344C211.781 0.152344 211.279 0.53418 211.099 1.29785V14.9092C211.099 17.0804 211.07 19.7533 211.01 22.9277C210.95 26.1022 210.92 28.7751 210.92 30.9463L210.875 30.7217L210.156 27.5322ZM243.673 1.92676C243.553 3.73861 243.344 5.64779 243.044 7.6543C242.73 9.64583 242.438 11.3154 242.168 12.6631C241.899 14.0107 241.457 16.0697 240.843 18.8398C240.768 19.1693 240.686 19.5212 240.596 19.8955C240.521 20.2699 240.439 20.6667 240.349 21.0859C240.02 22.5085 239.795 23.5267 239.675 24.1406C239.615 23.8861 239.391 22.7031 239.001 20.5918C238.642 18.6452 238.245 16.6387 237.811 14.5723C236.643 8.98698 235.647 5.17611 234.824 3.13965C234.255 1.79199 233.746 1.11068 233.296 1.0957L232.016 1.81445C231.971 3.79102 231.949 5.77507 231.949 7.7666C231.949 10.1774 231.979 13.1423 232.038 16.6611C232.083 20.6143 232.106 23.5866 232.106 25.5781C232.106 26.222 232.068 27.4574 231.994 29.2842C231.919 31.126 231.881 32.3763 231.881 33.0352C231.881 33.9635 232.031 34.6673 232.33 35.1465C232.63 35.6257 233.154 35.8652 233.903 35.8652C234.367 35.3861 234.599 34.8096 234.599 34.1357C234.599 32.3089 234.539 29.1569 234.419 24.6797C234.285 20.472 234.217 17.32 234.217 15.2236C234.217 13.6963 234.247 11.847 234.307 9.67578C234.487 10.5143 234.936 12.2363 235.655 14.8418C236.373 17.5221 236.89 19.7757 237.204 21.6025C237.534 23.4294 237.699 25.1364 237.699 26.7236C237.699 29.5837 238.245 31.0137 239.338 31.0137C240.012 31.0137 240.484 30.6468 240.753 29.9131C240.888 29.5687 240.985 29.2542 241.045 28.9697C241.12 28.6702 241.188 28.2959 241.247 27.8467L241.382 26.9932V26.7012C241.577 25.1289 242.049 22.8604 242.797 19.8955C243.546 16.9456 244.018 14.8792 244.212 13.6963V16.0322C244.212 18.6527 244.242 21.8796 244.302 25.7129C244.362 29.5462 244.392 32.7731 244.392 35.3936C244.392 35.9626 244.482 36.4043 244.662 36.7188C244.856 37.0482 245.103 37.2129 245.403 37.2129C245.687 37.2129 245.972 37.0856 246.256 36.8311C246.541 36.5765 246.773 36.2396 246.953 35.8203C247.132 35.401 247.222 34.9593 247.222 34.4951C247.222 30.8265 247.087 25.3311 246.818 18.0088C246.533 10.8812 246.391 5.38574 246.391 1.52246C246.391 1.23796 246.279 0.975911 246.054 0.736328C245.829 0.481771 245.582 0.354492 245.313 0.354492C244.894 0.354492 244.527 0.474284 244.212 0.713867C243.913 0.953451 243.733 1.2679 243.673 1.65723V1.92676ZM262.116 35.9775C261.622 35.9775 261.263 35.8877 261.038 35.708C260.814 35.5283 260.701 35.2214 260.701 34.7871V28.79C260.297 28.5055 259.548 28.2585 258.455 28.0488C257.377 27.8242 256.336 27.682 255.333 27.6221C255.034 28.1312 254.779 28.9098 254.569 29.958L254.435 30.6543C254.195 31.8822 253.978 32.8779 253.783 33.6416C253.589 34.4053 253.349 35.0192 253.065 35.4834C251.882 35.4834 251.208 35.1764 251.043 34.5625C251.328 34.1582 251.709 32.7207 252.189 30.25C252.593 28.1387 253.095 25.3311 253.694 21.8271C254.382 17.7542 255.011 14.3327 255.58 11.5625C256.149 8.77734 256.748 6.43392 257.377 4.53223C258.066 2.40592 258.74 1.34277 259.399 1.34277C260.042 1.34277 260.537 1.47754 260.881 1.74707C260.881 2.88509 261.18 5.84245 261.779 10.6191C262.378 15.3958 262.678 18.5404 262.678 20.0527C262.678 21.4902 262.843 23.8112 263.172 27.0156C263.486 30.3099 263.644 32.7806 263.644 34.4277C263.644 35.4609 263.135 35.9775 262.116 35.9775ZM259.713 26.0947C259.983 26.0947 260.297 26.0498 260.656 25.96C260.611 25.3011 260.454 23.6315 260.185 20.9512C259.481 13.8535 259.129 9.61589 259.129 8.23828C259.129 8.01367 259.137 7.87891 259.152 7.83398C258.852 8.13346 258.433 9.51855 257.894 11.9893C257.355 14.46 256.853 17.1178 256.389 19.9629C255.925 22.793 255.67 24.6647 255.625 25.5781C256.928 25.9225 258.291 26.0947 259.713 26.0947ZM267.734 2.84766C267.734 3.70117 267.847 5.13118 268.071 7.1377C268.296 9.12923 268.408 10.8962 268.408 12.4385C268.408 14.2803 268.401 15.875 268.386 17.2227L268.341 21.1758C268.341 22.6432 268.243 24.7096 268.049 27.375C267.839 30.235 267.734 32.3014 267.734 33.5742C267.734 35.2962 268.184 36.1572 269.082 36.1572C270.13 36.1572 270.654 35.3411 270.654 33.709V29.9355C270.654 28.9772 270.609 27.5547 270.519 25.668C270.415 23.901 270.362 22.4785 270.362 21.4004C270.362 20.9062 270.377 20.472 270.407 20.0977C270.452 19.7083 270.482 19.4762 270.497 19.4014C270.527 19.0719 270.692 18.6152 270.991 18.0312C271.38 17.2526 271.695 16.6536 271.934 16.2344C273.192 19.0046 274.233 21.9694 275.057 25.1289C275.895 28.2734 276.726 32.1966 277.55 36.8984C277.67 36.8984 277.842 36.9284 278.066 36.9883C278.291 37.0482 278.478 37.0781 278.628 37.0781C279.002 37.0781 279.339 36.9434 279.639 36.6738C279.938 36.4193 280.088 36.1123 280.088 35.7529C280.088 35.3786 279.092 32.0544 277.1 25.7803C275.124 19.4912 273.896 15.7477 273.417 14.5498V13.7412C273.627 12.7979 274.57 10.5742 276.247 7.07031C277.909 3.56641 278.74 1.66471 278.74 1.36523C278.74 1.02083 278.613 0.736328 278.358 0.511719C278.104 0.272135 277.797 0.152344 277.437 0.152344C277.153 0.152344 276.749 0.571615 276.225 1.41016C275.7 2.2487 275.146 3.33431 274.562 4.66699C273.439 7.24251 272.391 9.79557 271.418 12.3262C270.909 13.6589 270.617 14.4076 270.542 14.5723L270.744 5.11621C270.744 2.63053 270.175 1.3877 269.037 1.3877C268.678 1.3877 268.371 1.52995 268.116 1.81445C267.862 2.09896 267.734 2.44336 267.734 2.84766ZM292.399 34.7197C292.399 33.9111 291.523 33.5068 289.771 33.5068L287.211 33.6416V19.4463C287.39 19.2217 287.705 19.1094 288.154 19.1094C288.394 19.1094 288.603 19.1169 288.783 19.1318C288.948 19.1468 289.12 19.1543 289.299 19.1543C289.644 19.1543 289.928 19.0195 290.153 18.75C290.393 18.4655 290.512 18.1286 290.512 17.7393C290.512 17.3949 290.378 17.0954 290.108 16.8408C289.839 16.5863 289.524 16.459 289.165 16.459C288.76 16.459 288.266 16.5413 287.682 16.7061C287.218 16.8109 286.994 16.8633 287.008 16.8633C287.008 16.459 287.046 15.598 287.121 14.2803C287.196 12.9775 287.233 12.0866 287.233 11.6074C287.233 10.8737 287.173 9.6084 287.053 7.81152C286.934 6.01465 286.874 4.74935 286.874 4.01562C286.949 4.00065 287.113 3.99316 287.368 3.99316C287.622 3.99316 287.847 4.00065 288.042 4.01562C288.236 4.0306 288.453 4.03809 288.693 4.03809C290.086 4.03809 290.782 3.58138 290.782 2.66797C290.782 2.2487 290.55 1.89681 290.086 1.6123C289.636 1.31283 289.165 1.16309 288.671 1.16309C288.296 1.16309 287.727 1.23047 286.964 1.36523C286.2 1.5 285.631 1.56738 285.257 1.56738C285.002 1.82194 284.62 2.361 284.111 3.18457V3.3418C284.111 3.83594 284.216 4.62207 284.425 5.7002C284.635 6.77832 284.74 7.55697 284.74 8.03613V34.7646C284.74 35.4535 284.994 35.8877 285.504 36.0674C285.743 36.1572 285.96 36.2096 286.155 36.2246C286.365 36.2546 286.657 36.2695 287.031 36.2695H288.468C288.963 36.2695 289.464 36.2546 289.973 36.2246C290.423 36.1797 290.887 36.0449 291.366 35.8203C291.86 35.5807 292.204 35.2663 292.399 34.877V34.7197Z" fill="#161616"/>
</svg>
