<svg width="1005" height="421" viewBox="0 0 1005 421" fill="none" xmlns="http://www.w3.org/2000/svg">
<path d="M320.016 130.672C319.266 142.016 317.953 153.969 316.078 166.531C314.109 179 312.281 189.453 310.594 197.891C308.906 206.328 306.141 219.219 302.297 236.562C301.828 238.625 301.312 240.828 300.75 243.172C300.281 245.516 299.766 248 299.203 250.625C297.141 259.531 295.734 265.906 294.984 269.75C294.609 268.156 293.203 260.75 290.766 247.531C288.516 235.344 286.031 222.781 283.312 209.844C276 174.875 269.766 151.016 264.609 138.266C261.047 129.828 257.859 125.563 255.047 125.469L247.031 129.969C246.75 142.344 246.609 154.766 246.609 167.234C246.609 182.328 246.797 200.891 247.172 222.922C247.453 247.672 247.594 266.281 247.594 278.75C247.594 282.781 247.359 290.516 246.891 301.953C246.422 313.484 246.188 321.312 246.188 325.438C246.188 331.25 247.125 335.656 249 338.656C250.875 341.656 254.156 343.156 258.844 343.156C261.75 340.156 263.203 336.547 263.203 332.328C263.203 320.891 262.828 301.156 262.078 273.125C261.234 246.781 260.812 227.047 260.812 213.922C260.812 204.359 261 192.781 261.375 179.188C262.5 184.438 265.312 195.219 269.812 211.531C274.312 228.312 277.547 242.422 279.516 253.859C281.578 265.297 282.609 275.984 282.609 285.922C282.609 303.828 286.031 312.781 292.875 312.781C297.094 312.781 300.047 310.484 301.734 305.891C302.578 303.734 303.188 301.766 303.562 299.984C304.031 298.109 304.453 295.766 304.828 292.953L305.672 287.609V285.781C306.891 275.938 309.844 261.734 314.531 243.172C319.219 224.703 322.172 211.766 323.391 204.359V218.984C323.391 235.391 323.578 255.594 323.953 279.594C324.328 303.594 324.516 323.797 324.516 340.203C324.516 343.766 325.078 346.531 326.203 348.5C327.422 350.562 328.969 351.594 330.844 351.594C332.625 351.594 334.406 350.797 336.188 349.203C337.969 347.609 339.422 345.5 340.547 342.875C341.672 340.25 342.234 337.484 342.234 334.578C342.234 311.609 341.391 277.203 339.703 231.359C337.922 186.734 337.031 152.328 337.031 128.141C337.031 126.359 336.328 124.719 334.922 123.219C333.516 121.625 331.969 120.828 330.281 120.828C327.656 120.828 325.359 121.578 323.391 123.078C321.516 124.578 320.391 126.547 320.016 128.984V130.672ZM401.882 309.406C401.882 304.25 401.647 294.078 401.179 278.891C400.71 263.703 400.476 253.484 400.476 248.234C400.476 242.047 400.757 232.859 401.319 220.672C401.788 207.078 402.022 197.938 402.022 193.25C402.022 183.875 401.647 174.969 400.897 166.531H415.663C417.819 166.531 419.741 165.781 421.429 164.281C423.116 162.781 423.96 161.141 423.96 159.359C423.96 157.766 423.022 156.312 421.147 155C419.366 153.875 416.413 153.312 412.288 153.312H377.976C368.507 153.312 363.772 155.516 363.772 159.922C363.772 162.828 364.522 164.844 366.022 165.969C367.522 167.094 369.772 167.656 372.772 167.656C373.991 167.656 375.116 167.609 376.147 167.516C377.179 167.422 378.257 167.375 379.382 167.375H384.866C385.804 176.656 386.272 186.969 386.272 198.312C386.272 203.938 386.038 214.625 385.569 230.375C385.007 244.531 384.726 255.219 384.726 262.438C384.726 270.031 385.054 280.203 385.71 292.953C386.366 305.703 386.694 315.922 386.694 323.609L386.413 325.578L386.132 327.406H377.976C376.851 327.5 375.726 328.391 374.601 330.078C373.476 331.672 372.913 333.312 372.913 335C372.913 339.312 376.335 341.469 383.179 341.469L386.694 341.188C388.851 341.562 394.429 341.75 403.429 341.75H416.085C418.616 341.75 420.819 340.906 422.694 339.219C424.663 337.438 425.647 335.328 425.647 332.891C425.647 328.109 421.71 325.719 413.835 325.719C412.054 325.719 410.554 325.766 409.335 325.859C408.116 325.953 406.851 326 405.538 326H401.741C401.741 324.594 401.788 323.281 401.882 322.062V317.984V309.406ZM474.045 207.453C473.482 204.078 472.686 199.812 471.654 194.656L470.951 191.141C469.357 183.828 467.904 177.828 466.592 173.141C465.279 168.359 463.826 164.469 462.232 161.469C460.451 158.094 458.529 156.406 456.467 156.406C454.217 156.406 452.201 156.969 450.42 158.094C448.732 159.125 447.889 160.531 447.889 162.312C447.889 165.312 448.779 167.703 450.561 169.484V172.578C451.967 174.547 454.076 181.203 456.889 192.547C459.795 203.891 462.42 215.609 464.764 227.703C467.201 239.797 468.42 247.625 468.42 251.188C468.42 259.438 467.061 268.766 464.342 279.172L461.67 289.297C458.482 301.109 456.092 310.672 454.498 317.984C452.904 325.297 452.107 332.094 452.107 338.375C452.107 340.344 452.951 341.938 454.639 343.156C456.42 344.375 458.482 344.984 460.826 344.984C465.795 344.984 468.279 341.422 468.279 334.297C468.279 332.516 468.232 331.391 468.139 330.922C470.107 324.359 471.701 315.594 472.92 304.625C474.139 293.094 474.982 285.922 475.451 283.109L476.717 290C477.467 294.5 478.826 301.672 480.795 311.516C482.295 319.109 484.404 326.422 487.123 333.453C488.342 336.641 489.701 339.125 491.201 340.906C492.795 342.688 494.389 343.578 495.982 343.578C498.045 343.578 499.826 342.875 501.326 341.469C502.92 340.062 503.717 338.375 503.717 336.406C503.717 331.625 501.982 324.031 498.514 313.625L497.248 309.688C492.561 295.438 488.998 283.859 486.561 274.953C484.123 266.047 482.904 258.781 482.904 253.156C482.904 246.312 484.17 235.25 486.701 219.969C489.232 204.688 491.623 194.047 493.873 188.047V184.672C493.873 180.078 493.92 177.078 494.014 175.672C494.107 173.328 494.576 170.656 495.42 167.656C496.264 164.656 497.389 162.078 498.795 159.922L493.451 153.172C488.389 154.484 484.967 156.594 483.186 159.5C481.404 162.312 480.514 166.391 480.514 171.734C480.514 173.328 480.561 174.828 480.654 176.234V181.156C480.654 185.094 480.279 190.156 479.529 196.344C479.248 199.062 478.639 203 477.701 208.156C477.607 208.531 477.514 208.953 477.42 209.422C477.326 209.891 477.232 210.453 477.139 211.109C476.482 214.578 476.061 216.969 475.873 218.281L474.045 207.453ZM650.574 336.266C650.574 329.516 646.59 326.141 638.621 326.141C636.652 326.141 634.684 326.281 632.715 326.562V315.453C632.715 295.953 631.543 267.875 629.199 231.219C626.856 194.562 625.684 166.484 625.684 146.984C625.684 144.734 626.106 143.188 626.949 142.344C627.793 141.5 629.199 141.078 631.168 141.078H633.418C634.168 141.172 635.106 141.219 636.231 141.219C638.199 141.219 639.793 140.469 641.012 138.969C642.324 137.375 642.981 135.547 642.981 133.484C642.981 131.328 642.137 129.5 640.449 128C638.762 126.406 636.793 125.609 634.543 125.609C628.731 125.609 621.934 126.312 614.152 127.719C609.652 128.562 605.996 129.875 603.184 131.656C600.371 133.344 598.965 135.312 598.965 137.562C598.965 142.156 601.215 144.453 605.715 144.453C607.684 144.453 609.934 144.031 612.465 143.188C612.934 148.156 613.168 153.5 613.168 159.219L612.887 173.844L612.606 188.609C612.606 204.172 613.496 226.344 615.277 255.125C617.059 284 617.949 306.219 617.949 321.781C617.949 324.312 617.621 326.094 616.965 327.125C616.309 328.062 615.231 328.531 613.731 328.531L611.059 328.25C610.121 328.156 608.996 328.109 607.684 328.109C601.871 328.109 598.965 330.406 598.965 335C598.965 340.719 607.262 343.578 623.856 343.578C627.231 343.578 631.215 343.438 635.809 343.156L643.402 342.875L650.574 337.953V336.266ZM698.691 328.25L698.972 339.359L704.316 343.156C706.847 343.156 709.097 342.312 711.066 340.625C713.128 338.844 714.159 336.828 714.159 334.578C714.159 315.734 712.566 288.453 709.378 252.734C706.191 217.016 704.597 189.781 704.597 171.031L704.878 169.344L705.159 168.078L710.925 169.062C713.925 169.719 716.409 170.047 718.378 170.047C720.909 170.047 723.112 169.297 724.987 167.797C726.956 166.297 727.941 164.422 727.941 162.172C727.941 157.578 724.941 155.281 718.941 155.281H716.55C715.894 155.375 715.144 155.422 714.3 155.422C709.612 155.422 703.097 154.953 694.753 154.016C686.034 153.172 679.519 152.75 675.206 152.75C673.05 152.75 670.987 153.359 669.019 154.578C667.05 155.797 666.066 157.25 666.066 158.938C666.066 160.906 667.05 162.547 669.019 163.859C672.3 166.016 679.472 167.234 690.534 167.516C690.816 178.203 692.081 203.656 694.331 243.875C696.581 284 698.081 305.188 698.831 307.438L698.409 317.281L698.691 328.25ZM823.329 142.203C823.329 149.609 823.282 156.688 823.189 163.438C823.095 170.188 823.048 178.109 823.048 187.203C823.048 207.172 823.517 225.594 824.454 242.469C825.017 252.125 825.814 261.031 826.845 269.188C827.97 277.25 829.423 285.781 831.204 294.781C832.798 302.938 834.907 310.156 837.532 316.438C840.157 322.719 843.298 328.484 846.954 333.734C850.423 338.797 854.548 342.641 859.329 345.266C864.111 347.891 869.407 349.203 875.22 349.203C880.001 349.203 884.267 348.266 888.017 346.391C891.486 344.516 894.204 342.219 896.173 339.5C898.236 336.688 899.829 333.078 900.954 328.672C901.986 324.641 902.689 320.75 903.064 317C903.439 313.25 903.626 308.75 903.626 303.5C903.626 285.5 902.782 260.422 901.095 228.266C899.314 196.859 898.423 172.719 898.423 155.844C898.423 154.062 898.798 151.062 899.548 146.844C900.204 143.281 900.532 140.422 900.532 138.266V133.484L893.501 126.734C890.782 126.734 888.298 127.484 886.048 128.984C883.798 130.484 882.673 132.359 882.673 134.609C882.673 139.391 883.048 147.641 883.798 159.359C884.454 169.578 884.782 177.781 884.782 183.969L885.064 192.266L885.345 200.703V202.672C885.345 209.234 885.954 218.281 887.173 229.812C888.392 241.344 889.001 250.391 889.001 256.953V313.203C889.001 316.297 888.907 318.922 888.72 321.078C888.532 323.141 888.111 325.766 887.454 328.953C886.798 332.234 885.579 334.766 883.798 336.547C882.017 338.234 879.767 339.078 877.048 339.078C872.642 339.078 868.376 336.922 864.251 332.609C860.22 328.203 856.939 322.672 854.407 316.016C852.064 309.641 850.189 303.359 848.782 297.172C847.376 290.984 846.673 285.781 846.673 281.562C846.673 276.594 846.251 270.359 845.407 262.859C844.564 255.359 843.626 250.438 842.595 248.094C842.595 236.938 842.173 220.203 841.329 197.891C840.392 176.703 839.923 160.062 839.923 147.969C839.923 134.281 836.454 127.438 829.517 127.438C827.267 127.438 825.298 128.328 823.611 130.109C822.017 131.891 821.22 133.953 821.22 136.297C821.22 138.641 821.923 140.609 823.329 142.203ZM932.477 165.406C933.977 171.312 934.727 180.219 934.727 192.125C934.727 197.469 934.68 202.203 934.586 206.328L934.305 219.547C934.305 232.109 933.367 240.359 931.492 244.297V245.281C931.492 247.438 932.055 249.781 933.18 252.312C933.18 259.25 932.992 267.781 932.617 277.906C932.242 288.031 932.055 296.609 932.055 303.641C932.055 321.547 933.227 335.656 935.571 345.969L941.617 349.484C944.149 349.484 946.399 348.641 948.367 346.953C950.336 345.266 951.321 343.297 951.321 341.047C951.321 335.797 950.946 326.703 950.196 313.766C949.446 300.828 949.071 291.734 949.071 286.484V255.688C952.539 254.562 955.774 253.297 958.774 251.891C961.867 250.484 964.446 249.078 966.508 247.672C968.664 246.266 970.539 244.578 972.133 242.609C974.008 240.359 975.414 238.438 976.352 236.844C977.383 235.156 978.274 233.047 979.024 230.516C979.867 227.422 980.477 224.938 980.852 223.062C981.227 221.094 981.508 218.516 981.696 215.328C981.977 210.828 982.117 204.781 982.117 197.188C982.117 186.688 980.149 177.312 976.211 169.062C974.149 164.75 971.102 161.375 967.071 158.938C963.039 156.5 958.305 155.281 952.867 155.281H940.211C938.336 155.281 936.696 156.312 935.289 158.375C933.977 160.344 933.039 162.688 932.477 165.406ZM951.742 171.312C954.461 171.312 956.758 171.828 958.633 172.859C960.508 173.891 961.914 175.109 962.852 176.516C963.883 177.922 964.68 179.797 965.242 182.141C965.711 184.297 965.992 186.219 966.086 187.906C966.274 189.5 966.367 191.891 966.367 195.078C966.367 225.922 960.649 242.141 949.211 243.734V243.312L948.93 217.438L948.649 187.203V170.891C950.711 170.891 951.742 171.031 951.742 171.312Z" fill="#161616"/>
<path d="M320.016 130.672L321.013 130.738L321.016 130.705V130.672H320.016ZM316.078 166.531L317.066 166.687L317.067 166.679L316.078 166.531ZM302.297 236.562L303.272 236.784L303.273 236.779L302.297 236.562ZM300.75 243.172L299.778 242.939L299.773 242.957L299.769 242.976L300.75 243.172ZM299.203 250.625L300.177 250.851L300.179 250.843L300.181 250.835L299.203 250.625ZM294.984 269.75L294.011 269.979L295.966 269.941L294.984 269.75ZM290.766 247.531L291.749 247.35L291.749 247.35L290.766 247.531ZM283.312 209.844L282.334 210.048L282.334 210.049L283.312 209.844ZM264.609 138.266L265.536 137.891L265.534 137.884L265.531 137.877L264.609 138.266ZM255.047 125.469L255.08 124.469L254.801 124.46L254.557 124.597L255.047 125.469ZM247.031 129.969L246.542 129.097L246.044 129.376L246.032 129.946L247.031 129.969ZM247.172 222.922L248.172 222.911L248.172 222.905L247.172 222.922ZM246.891 301.953L245.891 301.912L245.891 301.913L246.891 301.953ZM258.844 343.156V344.156H259.267L259.562 343.852L258.844 343.156ZM262.078 273.125L263.078 273.098L263.078 273.093L262.078 273.125ZM261.375 179.188L262.353 178.978L260.375 179.16L261.375 179.188ZM269.812 211.531L270.778 211.272L270.776 211.265L269.812 211.531ZM279.516 253.859L278.53 254.029L278.531 254.037L279.516 253.859ZM301.734 305.891L300.803 305.526L300.799 305.536L300.796 305.546L301.734 305.891ZM303.562 299.984L302.592 299.742L302.588 299.76L302.584 299.778L303.562 299.984ZM304.828 292.953L303.84 292.797L303.838 292.809L303.837 292.821L304.828 292.953ZM305.672 287.609L306.66 287.765L306.672 287.688V287.609H305.672ZM305.672 285.781L304.679 285.658L304.672 285.72V285.781H305.672ZM314.531 243.172L313.562 242.926L313.562 242.927L314.531 243.172ZM323.391 204.359H324.391L322.404 204.197L323.391 204.359ZM326.203 348.5L325.335 348.996L325.338 349.002L325.342 349.009L326.203 348.5ZM339.703 231.359L340.702 231.323L340.702 231.319L339.703 231.359ZM334.922 123.219L334.172 123.88L334.182 123.892L334.192 123.903L334.922 123.219ZM323.391 123.078L322.785 122.283L322.775 122.29L322.766 122.297L323.391 123.078ZM320.016 128.984L319.027 128.832L319.016 128.908V128.984H320.016ZM319.018 130.606C318.27 141.919 316.961 153.845 315.089 166.384L317.067 166.679C318.946 154.092 320.261 142.112 321.013 130.738L319.018 130.606ZM315.09 166.375C313.123 178.836 311.297 189.275 309.613 197.695L311.574 198.087C313.265 189.631 315.096 179.164 317.066 166.687L315.09 166.375ZM309.613 197.695C307.928 206.121 305.164 219.004 301.321 236.346L303.273 236.779C307.117 219.434 309.885 206.535 311.574 198.087L309.613 197.695ZM301.322 236.341C300.854 238.399 300.339 240.598 299.778 242.939L301.722 243.405C302.286 241.058 302.802 238.851 303.272 236.784L301.322 236.341ZM299.769 242.976C299.302 245.315 298.787 247.794 298.225 250.415L300.181 250.835C300.744 248.206 301.261 245.717 301.731 243.368L299.769 242.976ZM298.229 250.399C296.166 259.306 294.757 265.696 294.003 269.559L295.966 269.941C296.712 266.116 298.115 259.756 300.177 250.851L298.229 250.399ZM295.958 269.521C295.59 267.958 294.19 260.587 291.749 247.35L289.782 247.713C292.216 260.913 293.629 268.354 294.011 269.979L295.958 269.521ZM291.749 247.35C289.497 235.154 287.011 222.583 284.291 209.638L282.334 210.049C285.051 222.979 287.534 235.534 289.782 247.713L291.749 247.35ZM284.291 209.639C276.98 174.676 270.73 150.734 265.536 137.891L263.682 138.641C268.801 151.297 275.02 175.074 282.334 210.048L284.291 209.639ZM265.531 137.877C263.737 133.629 262.013 130.367 260.348 128.14C258.722 125.964 256.973 124.532 255.08 124.469L255.014 126.468C255.933 126.499 257.184 127.247 258.746 129.337C260.269 131.375 261.919 134.465 263.688 138.655L265.531 137.877ZM254.557 124.597L246.542 129.097L247.521 130.841L255.536 126.341L254.557 124.597ZM246.032 129.946C245.75 142.329 245.609 154.758 245.609 167.234H247.609C247.609 154.773 247.75 142.359 248.031 129.991L246.032 129.946ZM245.609 167.234C245.609 182.336 245.797 200.904 246.172 222.939L248.172 222.905C247.797 200.877 247.609 182.321 247.609 167.234H245.609ZM246.172 222.933C246.453 247.682 246.594 266.287 246.594 278.75H248.594C248.594 266.275 248.453 247.661 248.172 222.911L246.172 222.933ZM246.594 278.75C246.594 282.758 246.36 290.472 245.891 301.912L247.89 301.994C248.358 290.559 248.594 282.805 248.594 278.75H246.594ZM245.891 301.913C245.423 313.441 245.188 321.289 245.188 325.438H247.188C247.188 321.336 247.421 313.527 247.89 301.994L245.891 301.913ZM245.188 325.438C245.188 331.329 246.133 335.955 248.152 339.186L249.848 338.126C248.117 335.357 247.188 331.171 247.188 325.438H245.188ZM248.152 339.186C250.268 342.572 253.937 344.156 258.844 344.156V342.156C254.375 342.156 251.482 340.741 249.848 338.126L248.152 339.186ZM259.562 343.852C262.651 340.663 264.203 336.804 264.203 332.328H262.203C262.203 336.29 260.849 339.649 258.126 342.46L259.562 343.852ZM264.203 332.328C264.203 320.876 263.828 301.129 263.078 273.098L261.078 273.152C261.828 301.183 262.203 320.905 262.203 332.328H264.203ZM263.078 273.093C262.234 246.752 261.812 227.03 261.812 213.922H259.812C259.812 227.064 260.235 246.811 261.079 273.157L263.078 273.093ZM261.812 213.922C261.812 204.371 262 192.803 262.375 179.215L260.375 179.16C260 192.759 259.812 204.347 259.812 213.922H261.812ZM260.397 179.397C261.529 184.68 264.35 195.49 268.849 211.797L270.776 211.265C266.275 194.947 263.471 184.195 262.353 178.978L260.397 179.397ZM268.847 211.79C273.342 228.555 276.568 242.632 278.53 254.029L280.501 253.69C278.525 242.211 275.283 228.07 270.778 211.272L268.847 211.79ZM278.531 254.037C280.585 265.425 281.609 276.053 281.609 285.922H283.609C283.609 275.916 282.571 265.168 280.5 253.682L278.531 254.037ZM281.609 285.922C281.609 294.91 282.464 301.773 284.242 306.423C285.133 308.756 286.28 310.595 287.727 311.856C289.193 313.135 290.924 313.781 292.875 313.781V311.781C291.404 311.781 290.141 311.308 289.041 310.349C287.921 309.372 286.929 307.853 286.11 305.709C284.465 301.407 283.609 294.84 283.609 285.922H281.609ZM292.875 313.781C295.177 313.781 297.194 313.15 298.868 311.848C300.531 310.554 301.784 308.655 302.673 306.235L300.796 305.546C299.997 307.72 298.93 309.266 297.64 310.269C296.361 311.264 294.792 311.781 292.875 311.781V313.781ZM302.666 306.255C303.524 304.06 304.152 302.038 304.541 300.19L302.584 299.778C302.223 301.493 301.632 303.408 300.803 305.526L302.666 306.255ZM304.533 300.227C305.014 298.303 305.441 295.919 305.819 293.085L303.837 292.821C303.465 295.612 303.049 297.916 302.592 299.742L304.533 300.227ZM305.816 293.109L306.66 287.765L304.684 287.453L303.84 292.797L305.816 293.109ZM306.672 287.609V285.781H304.672V287.609H306.672ZM306.664 285.904C307.875 276.123 310.816 261.969 315.501 243.417L313.562 242.927C308.872 261.5 305.906 275.752 304.679 285.658L306.664 285.904ZM315.501 243.418C320.188 224.951 323.151 211.975 324.377 204.522L322.404 204.197C321.193 211.556 318.25 224.455 313.562 242.926L315.501 243.418ZM322.391 204.359V218.984H324.391V204.359H322.391ZM322.391 218.984C322.391 235.398 322.578 255.606 322.953 279.609L324.953 279.578C324.578 255.581 324.391 235.384 324.391 218.984H322.391ZM322.953 279.609C323.328 303.606 323.516 323.804 323.516 340.203H325.516C325.516 323.79 325.328 303.581 324.953 279.578L322.953 279.609ZM323.516 340.203C323.516 343.849 324.088 346.814 325.335 348.996L327.071 348.004C326.069 346.249 325.516 343.682 325.516 340.203H323.516ZM325.342 349.009C326.683 351.278 328.515 352.594 330.844 352.594V350.594C329.422 350.594 328.16 349.847 327.064 347.991L325.342 349.009ZM330.844 352.594C332.945 352.594 334.953 351.649 336.854 349.948L335.521 348.458C333.859 349.944 332.305 350.594 330.844 350.594V352.594ZM336.854 349.948C338.763 348.24 340.295 346.002 341.466 343.269L339.628 342.481C338.549 344.998 337.174 346.979 335.521 348.458L336.854 349.948ZM341.466 343.269C342.645 340.517 343.234 337.617 343.234 334.578H341.234C341.234 337.351 340.698 339.983 339.628 342.481L341.466 343.269ZM343.234 334.578C343.234 311.59 342.39 277.169 340.702 231.323L338.704 231.396C340.391 277.237 341.234 311.628 341.234 334.578H343.234ZM340.702 231.319C338.921 186.699 338.031 152.308 338.031 128.141H336.031C336.031 152.348 336.923 186.77 338.704 231.399L340.702 231.319ZM338.031 128.141C338.031 126.066 337.203 124.189 335.651 122.535L334.192 123.903C335.454 125.248 336.031 126.653 336.031 128.141H338.031ZM335.672 122.557C334.129 120.808 332.327 119.828 330.281 119.828V121.828C331.61 121.828 332.903 122.442 334.172 123.88L335.672 122.557ZM330.281 119.828C327.451 119.828 324.938 120.642 322.785 122.283L323.997 123.874C325.78 122.515 327.861 121.828 330.281 121.828V119.828ZM322.766 122.297C320.689 123.958 319.439 126.154 319.027 128.832L321.004 129.136C321.342 126.939 322.342 125.198 324.015 123.859L322.766 122.297ZM319.016 128.984V130.672H321.016V128.984H319.016ZM401.319 220.672L402.318 220.718L402.319 220.706L401.319 220.672ZM400.897 166.531V165.531H399.805L399.901 166.62L400.897 166.531ZM421.147 155L421.721 154.181L421.702 154.167L421.681 154.155L421.147 155ZM384.866 167.375L385.861 167.275L385.77 166.375H384.866V167.375ZM385.569 230.375L386.569 230.415L386.569 230.405L385.569 230.375ZM386.694 323.609L387.684 323.751L387.694 323.68V323.609H386.694ZM386.413 325.578L387.402 325.73L387.403 325.72L386.413 325.578ZM386.132 327.406V328.406H386.99L387.12 327.558L386.132 327.406ZM377.976 327.406V326.406H377.934L377.893 326.41L377.976 327.406ZM374.601 330.078L375.418 330.655L375.425 330.644L375.433 330.633L374.601 330.078ZM383.179 341.469V342.469H383.219L383.258 342.466L383.179 341.469ZM386.694 341.188L386.866 340.202L386.741 340.181L386.615 340.191L386.694 341.188ZM422.694 339.219L423.363 339.962L423.365 339.96L422.694 339.219ZM401.741 326H400.741V327H401.741V326ZM401.882 322.062L402.879 322.139L402.882 322.101V322.062H401.882ZM402.882 309.406C402.882 304.232 402.647 294.045 402.178 278.86L400.179 278.921C400.648 294.111 400.882 304.268 400.882 309.406H402.882ZM402.178 278.86C401.709 263.67 401.476 253.467 401.476 248.234H399.476C399.476 253.502 399.711 263.736 400.179 278.921L402.178 278.86ZM401.476 248.234C401.476 242.071 401.756 232.902 402.318 220.718L400.32 220.626C399.758 232.817 399.476 242.023 399.476 248.234H401.476ZM402.319 220.706C402.787 207.115 403.022 197.957 403.022 193.25H401.022C401.022 197.918 400.789 207.041 400.32 220.637L402.319 220.706ZM403.022 193.25C403.022 183.849 402.646 174.913 401.894 166.443L399.901 166.62C400.649 175.025 401.022 183.901 401.022 193.25H403.022ZM400.897 167.531H415.663V165.531H400.897V167.531ZM415.663 167.531C418.077 167.531 420.232 166.683 422.093 165.029L420.764 163.534C419.251 164.88 417.562 165.531 415.663 165.531V167.531ZM422.093 165.029C423.933 163.393 424.96 161.499 424.96 159.359H422.96C422.96 160.782 422.3 162.169 420.764 163.534L422.093 165.029ZM424.96 159.359C424.96 157.312 423.739 155.593 421.721 154.181L420.574 155.819C422.306 157.032 422.96 158.219 422.96 159.359H424.96ZM421.681 154.155C419.649 152.871 416.452 152.312 412.288 152.312V154.312C416.375 154.312 419.084 154.879 420.614 155.845L421.681 154.155ZM412.288 152.312H377.976V154.312H412.288V152.312ZM377.976 152.312C373.195 152.312 369.468 152.864 366.901 154.058C365.605 154.661 364.564 155.447 363.847 156.448C363.123 157.458 362.772 158.63 362.772 159.922H364.772C364.772 159.011 365.013 158.255 365.473 157.613C365.94 156.961 366.674 156.37 367.745 155.871C369.913 154.863 373.287 154.312 377.976 154.312V152.312ZM362.772 159.922C362.772 162.966 363.557 165.369 365.423 166.769L366.622 165.169C365.488 164.318 364.772 162.69 364.772 159.922H362.772ZM365.423 166.769C367.172 168.081 369.676 168.656 372.772 168.656V166.656C369.869 166.656 367.873 166.107 366.622 165.169L365.423 166.769ZM372.772 168.656C374.016 168.656 375.172 168.608 376.238 168.512L376.057 166.52C375.061 166.61 373.966 166.656 372.772 166.656V168.656ZM376.238 168.512C377.237 168.421 378.285 168.375 379.382 168.375V166.375C378.229 166.375 377.121 166.423 376.057 166.52L376.238 168.512ZM379.382 168.375H384.866V166.375H379.382V168.375ZM383.871 167.475C384.805 176.717 385.272 186.995 385.272 198.312H387.272C387.272 186.942 386.803 176.595 385.861 167.275L383.871 167.475ZM385.272 198.312C385.272 203.92 385.039 214.594 384.57 230.345L386.569 230.405C387.038 214.656 387.272 203.955 387.272 198.312H385.272ZM384.57 230.335C384.008 244.495 383.726 255.198 383.726 262.438H385.726C385.726 255.239 386.006 244.568 386.569 230.415L384.57 230.335ZM383.726 262.438C383.726 270.056 384.055 280.247 384.711 293.005L386.709 292.902C386.053 280.159 385.726 270.007 385.726 262.438H383.726ZM384.711 293.005C385.367 305.747 385.694 315.946 385.694 323.609H387.694C387.694 315.897 387.365 305.659 386.709 292.902L384.711 293.005ZM385.704 323.468L385.423 325.437L387.403 325.72L387.684 323.751L385.704 323.468ZM385.425 325.426L385.144 327.254L387.12 327.558L387.401 325.73L385.425 325.426ZM386.132 326.406H377.976V328.406H386.132V326.406ZM377.893 326.41C376.291 326.543 374.935 327.774 373.769 329.523L375.433 330.633C376.516 329.008 377.41 328.457 378.059 328.403L377.893 326.41ZM373.784 329.501C372.559 331.237 371.913 333.075 371.913 335H373.913C373.913 333.55 374.392 332.107 375.418 330.655L373.784 329.501ZM371.913 335C371.913 337.472 372.922 339.422 374.946 340.698C376.893 341.924 379.684 342.469 383.179 342.469V340.469C379.83 340.469 377.488 339.935 376.013 339.006C374.615 338.125 373.913 336.84 373.913 335H371.913ZM383.258 342.466L386.774 342.184L386.615 340.191L383.099 340.472L383.258 342.466ZM386.523 342.173C388.784 342.566 394.463 342.75 403.429 342.75V340.75C394.395 340.75 388.917 340.559 386.866 340.202L386.523 342.173ZM403.429 342.75H416.085V340.75H403.429V342.75ZM416.085 342.75C418.862 342.75 421.304 341.815 423.363 339.962L422.025 338.475C420.335 339.997 418.37 340.75 416.085 340.75V342.75ZM423.365 339.96C425.523 338.008 426.647 335.638 426.647 332.891H424.647C424.647 335.018 423.804 336.867 422.023 338.477L423.365 339.96ZM426.647 332.891C426.647 330.167 425.494 328.042 423.213 326.657C421.013 325.321 417.841 324.719 413.835 324.719V326.719C417.704 326.719 420.438 327.312 422.175 328.367C423.832 329.372 424.647 330.833 424.647 332.891H426.647ZM413.835 324.719C412.039 324.719 410.511 324.766 409.258 324.862L409.412 326.856C410.596 326.765 412.069 326.719 413.835 326.719V324.719ZM409.258 324.862C408.067 324.954 406.827 325 405.538 325V327C406.874 327 408.166 326.952 409.412 326.856L409.258 324.862ZM405.538 325H401.741V327H405.538V325ZM402.741 326C402.741 324.616 402.787 323.329 402.879 322.139L400.885 321.986C400.789 323.234 400.741 324.572 400.741 326H402.741ZM402.882 322.062V317.984H400.882V322.062H402.882ZM402.882 317.984V309.406H400.882V317.984H402.882ZM474.045 207.453L473.059 207.618L473.059 207.62L474.045 207.453ZM470.951 191.141L471.932 190.945L471.93 190.936L471.928 190.928L470.951 191.141ZM466.592 173.141L465.628 173.405L465.629 173.41L466.592 173.141ZM462.232 161.469L461.348 161.936L461.349 161.938L462.232 161.469ZM450.42 158.094L450.941 158.947L450.948 158.943L450.954 158.939L450.42 158.094ZM450.561 169.484H451.561V169.07L451.268 168.777L450.561 169.484ZM450.561 172.578H449.561V172.899L449.747 173.159L450.561 172.578ZM456.889 192.547L455.918 192.788L455.92 192.795L456.889 192.547ZM464.764 227.703L463.782 227.893L463.783 227.901L464.764 227.703ZM464.342 279.172L465.309 279.427L465.309 279.425L464.342 279.172ZM461.67 289.297L462.635 289.557L462.637 289.552L461.67 289.297ZM454.639 343.156L454.053 343.967L454.064 343.974L454.074 343.982L454.639 343.156ZM468.139 330.922L467.181 330.635L467.109 330.873L467.158 331.118L468.139 330.922ZM472.92 304.625L473.914 304.735L473.914 304.73L472.92 304.625ZM475.451 283.109L476.435 282.929L474.465 282.945L475.451 283.109ZM476.717 290L477.703 289.836L477.702 289.827L477.7 289.819L476.717 290ZM480.795 311.516L481.776 311.322L481.776 311.32L480.795 311.516ZM487.123 333.453L488.057 333.096L488.056 333.092L487.123 333.453ZM491.201 340.906L490.436 341.55L490.446 341.562L490.456 341.573L491.201 340.906ZM501.326 341.469L500.665 340.719L500.653 340.729L500.642 340.739L501.326 341.469ZM498.514 313.625L497.562 313.931L497.565 313.941L498.514 313.625ZM497.248 309.688L498.2 309.381L498.198 309.375L497.248 309.688ZM493.873 188.047L494.809 188.398L494.873 188.228V188.047H493.873ZM494.014 175.672L495.012 175.738L495.012 175.725L495.013 175.712L494.014 175.672ZM498.795 159.922L499.633 160.468L500.026 159.865L499.579 159.301L498.795 159.922ZM493.451 153.172L494.235 152.551L493.831 152.04L493.2 152.204L493.451 153.172ZM483.186 159.5L484.03 160.035L484.034 160.029L484.038 160.023L483.186 159.5ZM480.654 176.234H481.654V176.201L481.652 176.168L480.654 176.234ZM479.529 196.344L478.537 196.223L478.536 196.232L478.535 196.241L479.529 196.344ZM477.701 208.156L478.671 208.399L478.679 208.367L478.685 208.335L477.701 208.156ZM477.139 211.109L478.121 211.295L478.126 211.273L478.129 211.251L477.139 211.109ZM475.873 218.281L474.887 218.448L476.863 218.423L475.873 218.281ZM475.031 207.289C474.466 203.899 473.667 199.622 472.635 194.46L470.674 194.852C471.704 200.003 472.499 204.257 473.059 207.618L475.031 207.289ZM472.635 194.46L471.932 190.945L469.971 191.337L470.674 194.852L472.635 194.46ZM471.928 190.928C470.332 183.605 468.875 177.584 467.555 172.871L465.629 173.41C466.934 178.072 468.383 184.051 469.974 191.354L471.928 190.928ZM467.556 172.876C466.232 168.053 464.756 164.087 463.116 161L461.349 161.938C462.897 164.851 464.326 168.666 465.628 173.405L467.556 172.876ZM463.117 161.002C461.31 157.579 459.135 155.406 456.467 155.406V157.406C457.924 157.406 459.592 158.609 461.348 161.936L463.117 161.002ZM456.467 155.406C454.041 155.406 451.838 156.015 449.886 157.248L450.954 158.939C452.564 157.922 454.392 157.406 456.467 157.406V155.406ZM449.899 157.24C447.953 158.429 446.889 160.139 446.889 162.312H448.889C448.889 160.923 449.512 159.821 450.941 158.947L449.899 157.24ZM446.889 162.312C446.889 165.523 447.85 168.187 449.854 170.191L451.268 168.777C449.709 167.219 448.889 165.102 448.889 162.312H446.889ZM449.561 169.484V172.578H451.561V169.484H449.561ZM449.747 173.159C450.344 173.995 451.182 175.998 452.244 179.349C453.289 182.648 454.514 187.125 455.918 192.788L457.859 192.306C456.451 186.625 455.215 182.102 454.151 178.745C453.103 175.439 452.184 173.13 451.374 171.997L449.747 173.159ZM455.92 192.795C458.821 204.119 461.442 215.818 463.782 227.893L465.745 227.513C463.398 215.401 460.769 203.663 457.857 192.299L455.92 192.795ZM463.783 227.901C466.226 240.022 467.42 247.745 467.42 251.188H469.42C469.42 247.505 468.176 239.572 465.744 227.506L463.783 227.901ZM467.42 251.188C467.42 259.331 466.078 268.572 463.374 278.919L465.309 279.425C468.044 268.959 469.42 259.544 469.42 251.188H467.42ZM463.375 278.917L460.703 289.042L462.637 289.552L465.309 279.427L463.375 278.917ZM460.705 289.036C457.515 300.856 455.12 310.436 453.521 317.771L455.475 318.197C457.064 310.908 459.45 301.363 462.635 289.557L460.705 289.036ZM453.521 317.771C451.915 325.141 451.107 332.01 451.107 338.375H453.107C453.107 332.177 453.894 325.453 455.475 318.197L453.521 317.771ZM451.107 338.375C451.107 340.686 452.123 342.573 454.053 343.967L455.224 342.346C453.78 341.302 453.107 340.002 453.107 338.375H451.107ZM454.074 343.982C456.036 345.324 458.299 345.984 460.826 345.984V343.984C458.666 343.984 456.804 343.426 455.203 342.331L454.074 343.982ZM460.826 345.984C463.583 345.984 465.778 344.976 467.236 342.885C468.649 340.859 469.279 337.945 469.279 334.297H467.279C467.279 337.774 466.668 340.204 465.596 341.74C464.57 343.212 463.038 343.984 460.826 343.984V345.984ZM469.279 334.297C469.279 332.548 469.237 331.312 469.119 330.726L467.158 331.118C467.228 331.469 467.279 332.483 467.279 334.297H469.279ZM469.097 331.209C471.09 324.565 472.692 315.733 473.914 304.735L471.926 304.515C470.711 315.455 469.125 324.154 467.181 330.635L469.097 331.209ZM473.914 304.73C475.134 293.187 475.975 286.05 476.438 283.274L474.465 282.945C473.99 285.794 473.143 293 471.926 304.52L473.914 304.73ZM474.468 283.29L475.733 290.181L477.7 289.819L476.435 282.929L474.468 283.29ZM475.73 290.164C476.483 294.681 477.845 301.867 479.814 311.712L481.776 311.32C479.807 301.477 478.45 294.319 477.703 289.836L475.73 290.164ZM479.814 311.709C481.325 319.359 483.45 326.727 486.19 333.814L488.056 333.092C485.359 326.117 483.265 318.86 481.776 311.322L479.814 311.709ZM486.189 333.81C487.431 337.058 488.839 339.654 490.436 341.55L491.966 340.262C490.563 338.596 489.253 336.223 488.057 333.096L486.189 333.81ZM490.456 341.573C492.144 343.46 493.987 344.578 495.982 344.578V342.578C494.79 342.578 493.446 341.915 491.947 340.239L490.456 341.573ZM495.982 344.578C498.298 344.578 500.324 343.779 502.01 342.198L500.642 340.739C499.328 341.971 497.792 342.578 495.982 342.578V344.578ZM501.988 342.219C503.777 340.64 504.717 338.687 504.717 336.406H502.717C502.717 338.063 502.063 339.485 500.665 340.719L501.988 342.219ZM504.717 336.406C504.717 331.448 502.933 323.719 499.462 313.309L497.565 313.941C501.032 324.343 502.717 331.802 502.717 336.406H504.717ZM499.466 313.319L498.2 309.382L496.296 309.993L497.562 313.931L499.466 313.319ZM498.198 309.375C493.513 295.133 489.956 283.572 487.525 274.689L485.596 275.217C488.04 284.146 491.608 295.742 496.298 310L498.198 309.375ZM487.525 274.689C485.098 265.821 483.904 258.654 483.904 253.156H481.904C481.904 258.909 483.148 266.272 485.596 275.217L487.525 274.689ZM483.904 253.156C483.904 246.402 485.157 235.41 487.688 220.132L485.715 219.805C483.183 235.09 481.904 246.223 481.904 253.156H483.904ZM487.688 220.132C490.219 204.85 492.597 194.297 494.809 188.398L492.937 187.696C490.649 193.797 488.246 204.525 485.715 219.805L487.688 220.132ZM494.873 188.047V184.672H492.873V188.047H494.873ZM494.873 184.672C494.873 180.071 494.92 177.105 495.012 175.738L493.016 175.605C492.92 177.051 492.873 180.086 492.873 184.672H494.873ZM495.013 175.712C495.103 173.467 495.554 170.875 496.383 167.927L494.457 167.385C493.599 170.438 493.112 173.189 493.015 175.632L495.013 175.712ZM496.383 167.927C497.204 165.005 498.292 162.524 499.633 160.468L497.957 159.376C496.486 161.633 495.323 164.308 494.457 167.385L496.383 167.927ZM499.579 159.301L494.235 152.551L492.667 153.793L498.011 160.543L499.579 159.301ZM493.2 152.204C488.018 153.548 484.307 155.757 482.333 158.977L484.038 160.023C485.627 157.43 488.76 155.421 493.702 154.14L493.2 152.204ZM482.341 158.965C480.414 162.007 479.514 166.305 479.514 171.734H481.514C481.514 166.476 482.395 162.618 484.03 160.035L482.341 158.965ZM479.514 171.734C479.514 173.348 479.561 174.87 479.657 176.301L481.652 176.168C481.56 174.786 481.514 173.309 481.514 171.734H479.514ZM479.654 176.234V181.156H481.654V176.234H479.654ZM479.654 181.156C479.654 185.037 479.284 190.056 478.537 196.223L480.522 196.464C481.275 190.257 481.654 185.15 481.654 181.156H479.654ZM478.535 196.241C478.257 198.921 477.654 202.828 476.717 207.977L478.685 208.335C479.624 203.172 480.239 199.204 480.524 196.447L478.535 196.241ZM476.731 207.914C476.633 208.307 476.536 208.745 476.439 209.226L478.401 209.618C478.492 209.161 478.582 208.755 478.671 208.399L476.731 207.914ZM476.439 209.226C476.341 209.718 476.244 210.3 476.149 210.968L478.129 211.251C478.221 210.606 478.312 210.063 478.401 209.618L476.439 209.226ZM476.156 210.923C475.5 214.391 475.074 216.802 474.883 218.14L476.863 218.423C477.047 217.135 477.465 214.766 478.121 211.295L476.156 210.923ZM476.859 218.115L475.031 207.287L473.059 207.62L474.887 218.448L476.859 218.115ZM632.715 326.562H631.715V327.716L632.856 327.552L632.715 326.562ZM633.418 141.078L633.542 140.086L633.48 140.078H633.418V141.078ZM641.012 138.969L640.24 138.333L640.236 138.338L641.012 138.969ZM640.449 128L639.763 128.727L639.774 128.737L639.785 128.747L640.449 128ZM614.152 127.719L613.975 126.735L613.968 126.736L614.152 127.719ZM603.184 131.656L603.698 132.514L603.709 132.508L603.719 132.501L603.184 131.656ZM612.465 143.188L613.461 143.094L613.342 141.841L612.149 142.239L612.465 143.188ZM613.168 159.219L614.168 159.238L614.168 159.228V159.219H613.168ZM612.887 173.844L611.887 173.825V173.825L612.887 173.844ZM612.606 188.609L611.606 188.59L611.606 188.6V188.609H612.606ZM615.277 255.125L616.276 255.063L616.276 255.063L615.277 255.125ZM616.965 327.125L617.784 327.698L617.797 327.68L617.809 327.662L616.965 327.125ZM613.731 328.531L613.626 329.526L613.678 329.531H613.731V328.531ZM611.059 328.25L611.163 327.255L611.158 327.255L611.059 328.25ZM635.809 343.156L635.772 342.157L635.76 342.157L635.748 342.158L635.809 343.156ZM643.402 342.875L643.44 343.874L643.729 343.864L643.968 343.7L643.402 342.875ZM650.574 337.953L651.14 338.778L651.574 338.48V337.953H650.574ZM651.574 336.266C651.574 332.689 650.511 329.839 648.232 327.909C645.986 326.006 642.723 325.141 638.621 325.141V327.141C642.488 327.141 645.202 327.963 646.94 329.435C648.646 330.88 649.574 333.092 649.574 336.266H651.574ZM638.621 325.141C636.605 325.141 634.589 325.285 632.574 325.573L632.856 327.552C634.779 327.278 636.7 327.141 638.621 327.141V325.141ZM633.715 326.562V315.453H631.715V326.562H633.715ZM633.715 315.453C633.715 295.921 632.541 267.817 630.197 231.155L628.201 231.283C630.545 267.933 631.715 295.985 631.715 315.453H633.715ZM630.197 231.155C627.854 194.505 626.684 166.452 626.684 146.984H624.684C624.684 166.517 625.857 194.62 628.201 231.283L630.197 231.155ZM626.684 146.984C626.684 144.79 627.109 143.598 627.656 143.051L626.242 141.637C625.102 142.777 624.684 144.679 624.684 146.984H626.684ZM627.656 143.051C628.222 142.485 629.301 142.078 631.168 142.078V140.078C629.098 140.078 627.364 140.515 626.242 141.637L627.656 143.051ZM631.168 142.078H633.418V140.078H631.168V142.078ZM633.294 142.07C634.1 142.171 635.082 142.219 636.231 142.219V140.219C635.129 140.219 634.236 140.173 633.542 140.086L633.294 142.07ZM636.231 142.219C638.494 142.219 640.375 141.338 641.788 139.599L640.236 138.338C639.211 139.599 637.905 140.219 636.231 140.219V142.219ZM641.784 139.604C643.244 137.832 643.981 135.779 643.981 133.484H641.981C641.981 135.315 641.405 136.918 640.24 138.333L641.784 139.604ZM643.981 133.484C643.981 131.028 643.003 128.932 641.114 127.253L639.785 128.747C641.27 130.068 641.981 131.629 641.981 133.484H643.981ZM641.136 127.273C639.269 125.51 637.057 124.609 634.543 124.609V126.609C636.529 126.609 638.254 127.302 639.763 128.727L641.136 127.273ZM634.543 124.609C628.654 124.609 621.795 125.321 613.975 126.735L614.33 128.703C622.072 127.304 628.807 126.609 634.543 126.609V124.609ZM613.968 126.736C609.387 127.595 605.6 128.942 602.649 130.811L603.719 132.501C606.392 130.808 609.918 129.53 614.337 128.702L613.968 126.736ZM602.669 130.799C599.706 132.577 597.965 134.815 597.965 137.562H599.965C599.965 135.81 601.036 134.111 603.698 132.514L602.669 130.799ZM597.965 137.562C597.965 140.008 598.564 142.027 599.938 143.43C601.316 144.837 603.306 145.453 605.715 145.453V143.453C603.624 143.453 602.239 142.921 601.367 142.031C600.491 141.137 599.965 139.71 599.965 137.562H597.965ZM605.715 145.453C607.822 145.453 610.182 145.003 612.781 144.136L612.149 142.239C609.686 143.06 607.546 143.453 605.715 143.453V145.453ZM611.469 143.281C611.935 148.215 612.168 153.527 612.168 159.219H614.168C614.168 153.473 613.933 148.098 613.461 143.094L611.469 143.281ZM612.168 159.2L611.887 173.825L613.887 173.863L614.168 159.238L612.168 159.2ZM611.887 173.825L611.606 188.59L613.605 188.628L613.887 173.863L611.887 173.825ZM611.606 188.609C611.606 204.203 612.498 226.399 614.279 255.187L616.276 255.063C614.495 226.288 613.606 204.141 613.606 188.609H611.606ZM614.279 255.187C616.06 284.055 616.949 306.25 616.949 321.781H618.949C618.949 306.188 618.057 283.945 616.276 255.063L614.279 255.187ZM616.949 321.781C616.949 324.287 616.613 325.815 616.121 326.588L617.809 327.662C618.629 326.372 618.949 324.338 618.949 321.781H616.949ZM616.146 326.552C615.733 327.141 615.016 327.531 613.731 327.531V329.531C615.445 329.531 616.885 328.984 617.784 327.698L616.146 326.552ZM613.835 327.537L611.163 327.255L610.954 329.245L613.626 329.526L613.835 327.537ZM611.158 327.255C610.178 327.157 609.018 327.109 607.684 327.109V329.109C608.975 329.109 610.065 329.156 610.959 329.245L611.158 327.255ZM607.684 327.109C604.673 327.109 602.23 327.7 600.525 329.047C598.775 330.431 597.965 332.478 597.965 335H599.965C599.965 332.928 600.609 331.53 601.765 330.617C602.966 329.667 604.882 329.109 607.684 329.109V327.109ZM597.965 335C597.965 338.504 600.564 340.898 604.862 342.379C609.171 343.864 615.528 344.578 623.856 344.578V342.578C615.589 342.578 609.501 341.863 605.513 340.488C601.514 339.11 599.965 337.215 599.965 335H597.965ZM623.856 344.578C627.257 344.578 631.263 344.436 635.87 344.154L635.748 342.158C631.167 342.439 627.204 342.578 623.856 342.578V344.578ZM635.846 344.156L643.44 343.874L643.365 341.876L635.772 342.157L635.846 344.156ZM643.968 343.7L651.14 338.778L650.009 337.129L642.837 342.05L643.968 343.7ZM651.574 337.953V336.266H649.574V337.953H651.574ZM698.691 328.25L699.69 328.225L699.69 328.224L698.691 328.25ZM698.972 339.359L697.972 339.385L697.985 339.885L698.393 340.175L698.972 339.359ZM704.316 343.156L703.736 343.971L703.997 344.156H704.316V343.156ZM711.066 340.625L711.716 341.384L711.719 341.382L711.066 340.625ZM704.597 171.031L703.61 170.867L703.597 170.948V171.031H704.597ZM704.878 169.344L703.902 169.127L703.896 169.153L703.892 169.179L704.878 169.344ZM705.159 168.078L705.328 167.092L704.39 166.932L704.183 167.861L705.159 168.078ZM710.925 169.062L711.139 168.086L711.116 168.081L711.093 168.077L710.925 169.062ZM724.987 167.797L724.381 167.001L724.372 167.009L724.363 167.016L724.987 167.797ZM716.55 155.281V154.281H716.479L716.409 154.291L716.55 155.281ZM694.753 154.016L694.865 153.022L694.857 153.021L694.849 153.02L694.753 154.016ZM669.019 163.859L668.464 164.691L668.47 164.695L669.019 163.859ZM690.534 167.516L691.534 167.489L691.509 166.54L690.56 166.516L690.534 167.516ZM694.331 243.875L693.333 243.931V243.931L694.331 243.875ZM698.831 307.438L699.83 307.48L699.838 307.296L699.78 307.121L698.831 307.438ZM698.409 317.281L697.41 317.238L697.409 317.273L697.41 317.307L698.409 317.281ZM697.691 328.275L697.972 339.385L699.972 339.334L699.69 328.225L697.691 328.275ZM698.393 340.175L703.736 343.971L704.895 342.341L699.551 338.544L698.393 340.175ZM704.316 344.156C707.092 344.156 709.571 343.223 711.716 341.384L710.415 339.866C708.622 341.402 706.602 342.156 704.316 342.156V344.156ZM711.719 341.382C713.951 339.454 715.159 337.18 715.159 334.578H713.159C713.159 336.477 712.305 338.233 710.412 339.868L711.719 341.382ZM715.159 334.578C715.159 315.689 713.562 288.373 710.374 252.645L708.382 252.823C711.569 288.534 713.159 315.78 713.159 334.578H715.159ZM710.374 252.645C707.187 216.935 705.597 189.736 705.597 171.031H703.597C703.597 189.827 705.194 217.096 708.382 252.823L710.374 252.645ZM705.583 171.196L705.865 169.508L703.892 169.179L703.61 170.867L705.583 171.196ZM705.854 169.561L706.136 168.295L704.183 167.861L703.902 169.127L705.854 169.561ZM704.991 169.064L710.757 170.048L711.093 168.077L705.328 167.092L704.991 169.064ZM710.711 170.039C713.747 170.703 716.309 171.047 718.378 171.047V169.047C716.509 169.047 714.103 168.734 711.139 168.086L710.711 170.039ZM718.378 171.047C721.123 171.047 723.55 170.228 725.612 168.578L724.363 167.016C722.675 168.366 720.696 169.047 718.378 169.047V171.047ZM725.594 168.592C727.782 166.925 728.941 164.768 728.941 162.172H726.941C726.941 164.076 726.131 165.669 724.381 167.001L725.594 168.592ZM728.941 162.172C728.941 159.639 728.1 157.589 726.299 156.21C724.548 154.87 722.04 154.281 718.941 154.281V156.281C721.841 156.281 723.833 156.841 725.083 157.798C726.282 158.716 726.941 160.111 726.941 162.172H728.941ZM718.941 154.281H716.55V156.281H718.941V154.281ZM716.409 154.291C715.81 154.377 715.108 154.422 714.3 154.422V156.422C715.179 156.422 715.978 156.373 716.691 156.271L716.409 154.291ZM714.3 154.422C709.668 154.422 703.195 153.958 694.865 153.022L694.641 155.009C702.998 155.948 709.557 156.422 714.3 156.422V154.422ZM694.849 153.02C686.124 152.176 679.569 151.75 675.206 151.75V153.75C679.468 153.75 685.945 154.168 694.657 155.011L694.849 153.02ZM675.206 151.75C672.85 151.75 670.607 152.419 668.492 153.728L669.545 155.428C671.368 154.3 673.25 153.75 675.206 153.75V151.75ZM668.492 153.728C666.351 155.053 665.066 156.781 665.066 158.938H667.066C667.066 157.719 667.749 156.54 669.545 155.428L668.492 153.728ZM665.066 158.938C665.066 161.311 666.282 163.236 668.464 164.691L669.573 163.027C667.818 161.857 667.066 160.501 667.066 158.938H665.066ZM668.47 164.695C670.286 165.889 673.065 166.76 676.691 167.376C680.341 167.997 684.952 168.374 690.509 168.515L690.56 166.516C685.054 166.376 680.548 166.003 677.026 165.405C673.48 164.802 671.033 163.986 669.568 163.024L668.47 164.695ZM689.535 167.542C689.816 178.247 691.083 203.717 693.333 243.931L695.33 243.819C693.079 203.595 691.815 178.159 691.534 167.489L689.535 167.542ZM693.333 243.931C694.458 263.995 695.396 279.329 696.146 289.93C696.521 295.23 696.85 299.353 697.133 302.295C697.274 303.765 697.404 304.948 697.524 305.839C697.639 306.697 697.754 307.368 697.883 307.754L699.78 307.121C699.721 306.944 699.625 306.461 699.506 305.573C699.391 304.718 699.264 303.563 699.124 302.104C698.843 299.186 698.516 295.083 698.141 289.789C697.392 279.202 696.455 263.88 695.33 243.819L693.333 243.931ZM697.832 307.395L697.41 317.238L699.408 317.324L699.83 307.48L697.832 307.395ZM697.41 317.307L697.691 328.276L699.69 328.224L699.409 317.256L697.41 317.307ZM823.329 142.203H824.329V141.825L824.079 141.542L823.329 142.203ZM824.454 242.469L823.456 242.524L823.456 242.527L824.454 242.469ZM826.845 269.188L825.853 269.313L825.855 269.326L826.845 269.188ZM831.204 294.781L832.186 294.589L832.185 294.587L831.204 294.781ZM846.954 333.734L847.779 333.169L847.775 333.163L846.954 333.734ZM888.017 346.391L888.464 347.285L888.478 347.278L888.492 347.27L888.017 346.391ZM896.173 339.5L895.367 338.909L895.363 338.913L896.173 339.5ZM900.954 328.672L899.986 328.424L899.985 328.424L900.954 328.672ZM901.095 228.266L902.094 228.213L902.093 228.209L901.095 228.266ZM899.548 146.844L898.565 146.663L898.564 146.669L899.548 146.844ZM900.532 133.484H901.532V133.058L901.225 132.763L900.532 133.484ZM893.501 126.734L894.194 126.013L893.904 125.734H893.501V126.734ZM883.798 159.359L882.8 159.423L882.8 159.423L883.798 159.359ZM884.782 183.969H883.782V183.986L883.783 184.003L884.782 183.969ZM885.064 192.266L886.063 192.232V192.232L885.064 192.266ZM885.345 200.703H886.345V200.686L886.344 200.67L885.345 200.703ZM888.72 321.078L889.716 321.169L889.716 321.165L888.72 321.078ZM887.454 328.953L886.475 328.751L886.474 328.757L887.454 328.953ZM883.798 336.547L884.486 337.273L884.496 337.264L884.505 337.254L883.798 336.547ZM864.251 332.609L863.513 333.284L863.521 333.293L863.529 333.301L864.251 332.609ZM854.407 316.016L853.469 316.361L853.473 316.371L854.407 316.016ZM842.595 248.094H841.595V248.304L841.68 248.496L842.595 248.094ZM841.329 197.891L842.329 197.853L842.328 197.846L841.329 197.891ZM823.611 130.109L822.885 129.422L822.875 129.432L822.865 129.443L823.611 130.109ZM822.329 142.203C822.329 149.605 822.282 156.679 822.189 163.424L824.189 163.451C824.282 156.696 824.329 149.614 824.329 142.203H822.329ZM822.189 163.424C822.095 170.18 822.048 178.106 822.048 187.203H824.048C824.048 178.113 824.095 170.195 824.189 163.451L822.189 163.424ZM822.048 187.203C822.048 207.187 822.517 225.628 823.456 242.524L825.453 242.413C824.516 225.56 824.048 207.157 824.048 187.203H822.048ZM823.456 242.527C824.02 252.202 824.818 261.131 825.853 269.313L827.837 269.062C826.809 260.932 826.014 252.048 825.453 242.411L823.456 242.527ZM825.855 269.326C826.982 277.409 828.439 285.959 830.223 294.975L832.185 294.587C830.407 285.603 828.957 277.091 827.835 269.049L825.855 269.326ZM830.223 294.973C831.827 303.182 833.954 310.467 836.61 316.823L838.455 316.052C835.861 309.845 833.769 302.693 832.186 294.589L830.223 294.973ZM836.61 316.823C839.26 323.166 842.434 328.994 846.134 334.306L847.775 333.163C844.162 327.975 841.055 322.272 838.455 316.052L836.61 316.823ZM846.129 334.3C849.676 339.475 853.913 343.433 858.848 346.142L859.811 344.389C855.183 341.848 851.171 338.119 847.779 333.169L846.129 334.3ZM858.848 346.142C863.786 348.853 869.251 350.203 875.22 350.203V348.203C869.564 348.203 864.435 346.928 859.811 344.389L858.848 346.142ZM875.22 350.203C880.135 350.203 884.557 349.239 888.464 347.285L887.57 345.496C883.977 347.293 879.868 348.203 875.22 348.203V350.203ZM888.492 347.27C892.07 345.336 894.912 342.946 896.983 340.087L895.363 338.913C893.497 341.491 890.901 343.695 887.541 345.511L888.492 347.27ZM896.979 340.091C899.137 337.15 900.776 333.414 901.923 328.919L899.985 328.424C898.883 332.743 897.334 336.225 895.367 338.909L896.979 340.091ZM901.923 328.92C902.966 324.845 903.678 320.904 904.059 317.1L902.069 316.9C901.699 320.596 901.006 324.437 899.986 328.424L901.923 328.92ZM904.059 317.1C904.438 313.306 904.626 308.771 904.626 303.5H902.626C902.626 308.729 902.439 313.194 902.069 316.9L904.059 317.1ZM904.626 303.5C904.626 285.474 903.781 260.376 902.094 228.213L900.096 228.318C901.784 260.468 902.626 285.526 902.626 303.5H904.626ZM902.093 228.209C900.312 196.809 899.423 172.69 899.423 155.844H897.423C897.423 172.747 898.315 196.91 900.097 228.322L902.093 228.209ZM899.423 155.844C899.423 154.16 899.783 151.238 900.533 147.019L898.564 146.669C897.814 150.887 897.423 153.965 897.423 155.844H899.423ZM900.532 147.025C901.193 143.437 901.532 140.51 901.532 138.266H899.532C899.532 140.334 899.216 143.125 898.565 146.663L900.532 147.025ZM901.532 138.266V133.484H899.532V138.266H901.532ZM901.225 132.763L894.194 126.013L892.809 127.456L899.84 134.206L901.225 132.763ZM893.501 125.734C890.586 125.734 887.909 126.542 885.493 128.152L886.603 129.816C888.688 128.427 890.979 127.734 893.501 127.734V125.734ZM885.493 128.152C883.03 129.795 881.673 131.954 881.673 134.609H883.673C883.673 132.764 884.567 131.174 886.603 129.816L885.493 128.152ZM881.673 134.609C881.673 139.426 882.05 147.705 882.8 159.423L884.796 159.296C884.046 147.576 883.673 139.355 883.673 134.609H881.673ZM882.8 159.423C883.456 169.633 883.782 177.812 883.782 183.969H885.782C885.782 177.751 885.453 169.524 884.796 159.295L882.8 159.423ZM883.783 184.003L884.064 192.299L886.063 192.232L885.782 183.935L883.783 184.003ZM884.064 192.299L884.346 200.736L886.344 200.67L886.063 192.232L884.064 192.299ZM884.345 200.703V202.672H886.345V200.703H884.345ZM884.345 202.672C884.345 209.286 884.959 218.374 886.179 229.918L888.168 229.707C886.95 218.189 886.345 209.182 886.345 202.672H884.345ZM886.179 229.918C887.396 241.436 888.001 250.443 888.001 256.953H890.001C890.001 250.339 889.388 241.251 888.168 229.707L886.179 229.918ZM888.001 256.953V313.203H890.001V256.953H888.001ZM888.001 313.203C888.001 316.279 887.908 318.873 887.724 320.991L889.716 321.165C889.907 318.97 890.001 316.315 890.001 313.203H888.001ZM887.724 320.988C887.541 322.998 887.127 325.583 886.475 328.751L888.434 329.155C889.094 325.949 889.524 323.283 889.716 321.169L887.724 320.988ZM886.474 328.757C885.844 331.907 884.694 334.237 883.091 335.84L884.505 337.254C886.465 335.294 887.752 332.562 888.435 329.149L886.474 328.757ZM883.11 335.821C881.536 337.313 879.541 338.078 877.048 338.078V340.078C879.993 340.078 882.498 339.156 884.486 337.273L883.11 335.821ZM877.048 338.078C873.001 338.078 868.979 336.106 864.974 331.918L863.529 333.301C867.773 337.738 872.283 340.078 877.048 340.078V338.078ZM864.989 331.934C861.058 327.637 857.837 322.221 855.342 315.66L853.473 316.371C856.04 323.123 859.382 328.769 863.513 333.284L864.989 331.934ZM855.346 315.671C853.016 309.333 851.154 303.093 849.758 296.95L847.807 297.393C849.224 303.626 851.111 309.948 853.469 316.361L855.346 315.671ZM849.758 296.95C848.36 290.803 847.673 285.679 847.673 281.562H845.673C845.673 285.883 846.392 291.166 847.807 297.393L849.758 296.95ZM847.673 281.562C847.673 276.543 847.247 270.268 846.401 262.748L844.414 262.971C845.255 270.451 845.673 276.645 845.673 281.562H847.673ZM846.401 262.748C845.56 255.272 844.613 250.197 843.51 247.691L841.68 248.496C842.64 250.678 843.567 255.446 844.414 262.971L846.401 262.748ZM843.595 248.094C843.595 236.918 843.172 220.168 842.329 197.853L840.33 197.928C841.174 220.238 841.595 236.957 841.595 248.094H843.595ZM842.328 197.846C841.391 176.664 840.923 160.041 840.923 147.969H838.923C838.923 160.084 839.393 176.742 840.33 197.935L842.328 197.846ZM840.923 147.969C840.923 141.073 840.055 135.751 838.214 132.118C837.286 130.288 836.096 128.856 834.619 127.885C833.137 126.91 831.423 126.438 829.517 126.438V128.438C831.079 128.438 832.401 128.82 833.52 129.556C834.645 130.296 835.623 131.431 836.43 133.022C838.057 136.234 838.923 141.177 838.923 147.969H840.923ZM829.517 126.438C826.966 126.438 824.742 127.461 822.885 129.422L824.337 130.797C825.854 129.195 827.568 128.438 829.517 128.438V126.438ZM822.865 129.443C821.111 131.403 820.22 133.702 820.22 136.297H822.22C822.22 134.204 822.923 132.378 824.356 130.776L822.865 129.443ZM820.22 136.297C820.22 138.857 820.995 141.069 822.58 142.865L824.079 141.542C822.851 140.15 822.22 138.424 822.22 136.297H820.22ZM932.477 165.406L931.498 165.204L931.451 165.429L931.508 165.652L932.477 165.406ZM934.586 206.328L933.586 206.305V206.307L934.586 206.328ZM934.305 219.547L933.305 219.526L933.305 219.536V219.547H934.305ZM931.492 244.297L930.59 243.867L930.492 244.071V244.297H931.492ZM933.18 252.312H934.18V252.1L934.094 251.906L933.18 252.312ZM935.571 345.969L934.595 346.19L934.692 346.615L935.068 346.833L935.571 345.969ZM941.617 349.484L941.115 350.349L941.348 350.484H941.617V349.484ZM949.071 255.688L948.762 254.736L948.071 254.961V255.688H949.071ZM958.774 251.891L958.36 250.98L958.349 250.985L958.774 251.891ZM966.508 247.672L965.962 246.834L965.953 246.84L965.945 246.846L966.508 247.672ZM972.133 242.609L971.365 241.969L971.36 241.975L971.356 241.98L972.133 242.609ZM976.352 236.844L975.499 236.322L975.494 236.329L975.49 236.337L976.352 236.844ZM979.024 230.516L979.983 230.8L979.986 230.789L979.989 230.779L979.024 230.516ZM980.852 223.062L981.833 223.259L981.834 223.25L980.852 223.062ZM981.696 215.328L980.698 215.266L980.697 215.269L981.696 215.328ZM976.211 169.062L977.114 168.632L977.113 168.631L976.211 169.062ZM935.289 158.375L934.463 157.812L934.457 157.82L935.289 158.375ZM951.742 171.312H950.742V172.312H951.742V171.312ZM962.852 176.516L962.02 177.07L962.032 177.089L962.045 177.107L962.852 176.516ZM965.242 182.141L966.22 181.928L966.217 181.918L966.215 181.907L965.242 182.141ZM966.086 187.906L965.088 187.962L965.089 187.992L965.093 188.023L966.086 187.906ZM949.211 243.734H948.211V244.883L949.349 244.725L949.211 243.734ZM949.211 243.312H950.211L950.211 243.302L949.211 243.312ZM948.93 217.438L947.93 217.447V217.448L948.93 217.438ZM948.649 187.203H947.649L947.649 187.212L948.649 187.203ZM948.649 170.891V169.891H947.649V170.891H948.649ZM931.508 165.652C932.976 171.434 933.727 180.239 933.727 192.125H935.727C935.727 180.199 934.978 171.191 933.446 165.16L931.508 165.652ZM933.727 192.125C933.727 197.463 933.68 202.19 933.586 206.305L935.586 206.351C935.68 202.216 935.727 197.474 935.727 192.125H933.727ZM933.586 206.307L933.305 219.526L935.305 219.568L935.586 206.349L933.586 206.307ZM933.305 219.547C933.305 225.807 933.071 230.97 932.608 235.043C932.143 239.139 931.454 242.052 930.59 243.867L932.395 244.727C933.406 242.605 934.123 239.423 934.595 235.269C935.07 231.093 935.305 225.849 935.305 219.547H933.305ZM930.492 244.297V245.281H932.492V244.297H930.492ZM930.492 245.281C930.492 247.611 931.1 250.094 932.266 252.719L934.094 251.906C933.01 249.468 932.492 247.264 932.492 245.281H930.492ZM932.18 252.312C932.18 259.233 931.993 267.752 931.618 277.869L933.617 277.943C933.992 267.811 934.18 259.267 934.18 252.312H932.18ZM931.618 277.869C931.243 288.002 931.055 296.593 931.055 303.641H933.055C933.055 296.626 933.242 288.061 933.617 277.943L931.618 277.869ZM931.055 303.641C931.055 321.578 932.228 335.772 934.595 346.19L936.546 345.747C934.226 335.54 933.055 321.516 933.055 303.641H931.055ZM935.068 346.833L941.115 350.349L942.12 348.62L936.073 345.104L935.068 346.833ZM941.617 350.484C944.394 350.484 946.873 349.551 949.018 347.712L947.717 346.194C945.924 347.73 943.904 348.484 941.617 348.484V350.484ZM949.018 347.712C951.171 345.867 952.321 343.635 952.321 341.047H950.321C950.321 342.959 949.501 344.664 947.717 346.194L949.018 347.712ZM952.321 341.047C952.321 335.765 951.944 326.645 951.194 313.708L949.197 313.823C949.947 326.762 950.321 335.829 950.321 341.047H952.321ZM951.194 313.708C950.444 300.77 950.071 291.702 950.071 286.484H948.071C948.071 291.767 948.447 300.887 949.197 313.823L951.194 313.708ZM950.071 286.484V255.688H948.071V286.484H950.071ZM949.379 256.639C952.884 255.502 956.157 254.222 959.198 252.796L958.349 250.985C955.391 252.372 952.195 253.623 948.762 254.736L949.379 256.639ZM959.188 252.801C962.316 251.379 964.948 249.946 967.071 248.498L965.945 246.846C963.943 248.21 961.419 249.59 958.36 250.98L959.188 252.801ZM967.054 248.509C969.297 247.047 971.25 245.29 972.91 243.239L971.356 241.98C969.829 243.867 968.032 245.484 965.962 246.834L967.054 248.509ZM972.901 243.25C974.794 240.979 976.238 239.01 977.214 237.351L975.49 236.337C974.591 237.865 973.223 239.74 971.365 241.969L972.901 243.25ZM977.205 237.365C978.294 235.583 979.216 233.388 979.983 230.8L978.065 230.232C977.332 232.705 976.472 234.729 975.499 236.322L977.205 237.365ZM979.989 230.779C980.835 227.675 981.451 225.166 981.832 223.259L979.871 222.866C979.503 224.709 978.9 227.168 978.059 230.253L979.989 230.779ZM981.834 223.25C982.221 221.221 982.505 218.595 982.694 215.387L980.697 215.269C980.511 218.436 980.233 220.966 979.87 222.875L981.834 223.25ZM982.694 215.391C982.977 210.86 983.117 204.79 983.117 197.188H981.117C981.117 204.772 980.977 210.796 980.698 215.266L982.694 215.391ZM983.117 197.188C983.117 186.561 981.124 177.035 977.114 168.632L975.309 169.493C979.173 177.59 981.117 186.814 981.117 197.188H983.117ZM977.113 168.631C974.968 164.145 971.789 160.622 967.588 158.082L966.553 159.793C970.415 162.128 973.329 165.355 975.309 169.494L977.113 168.631ZM967.588 158.082C963.378 155.536 958.459 154.281 952.867 154.281V156.281C958.151 156.281 962.701 157.464 966.553 159.793L967.588 158.082ZM952.867 154.281H940.211V156.281H952.867V154.281ZM940.211 154.281C937.901 154.281 935.987 155.576 934.463 157.812L936.116 158.938C937.404 157.049 938.772 156.281 940.211 156.281V154.281ZM934.457 157.82C933.062 159.913 932.082 162.381 931.498 165.204L933.456 165.609C933.997 162.994 934.891 160.775 936.121 158.93L934.457 157.82ZM951.742 172.312C954.337 172.312 956.459 172.805 958.151 173.736L959.115 171.983C957.058 170.852 954.585 170.312 951.742 170.312V172.312ZM958.151 173.736C959.922 174.709 961.192 175.829 962.02 177.07L963.684 175.961C962.637 174.39 961.094 173.072 959.115 171.983L958.151 173.736ZM962.045 177.107C962.974 178.374 963.728 180.113 964.27 182.374L966.215 181.907C965.632 179.48 964.792 177.47 963.658 175.924L962.045 177.107ZM964.265 182.353C964.726 184.472 964.998 186.34 965.088 187.962L967.085 187.851C966.987 186.097 966.696 184.121 966.22 181.928L964.265 182.353ZM965.093 188.023C965.273 189.557 965.367 191.9 965.367 195.078H967.367C967.367 191.882 967.274 189.443 967.079 187.789L965.093 188.023ZM965.367 195.078C965.367 210.462 963.938 222.093 961.135 230.042C958.333 237.991 954.256 242.022 949.073 242.744L949.349 244.725C955.604 243.853 960.106 238.978 963.022 230.708C965.937 222.438 967.367 210.538 967.367 195.078H965.367ZM950.211 243.734V243.312H948.211V243.734H950.211ZM950.211 243.302L949.93 217.427L947.93 217.448L948.211 243.323L950.211 243.302ZM949.93 217.428L949.649 187.194L947.649 187.212L947.93 217.447L949.93 217.428ZM949.649 187.203V170.891H947.649V187.203H949.649ZM948.649 171.891C949.67 171.891 950.388 171.926 950.834 171.987C950.942 172.002 951.025 172.017 951.086 172.031C951.149 172.045 951.173 172.055 951.17 172.053C951.168 172.052 951.151 172.045 951.125 172.03C951.1 172.015 951.055 171.986 951.004 171.937C950.894 171.832 950.742 171.619 950.742 171.312H952.742C952.742 170.935 952.559 170.656 952.385 170.49C952.226 170.339 952.05 170.252 951.928 170.202C951.68 170.101 951.387 170.044 951.104 170.005C950.519 169.925 949.69 169.891 948.649 169.891V171.891Z" fill="#161616"/>
<path d="M84 342C43.6 342.4 28.5 328.5 26 321.5V223C37.3333 226.333 64.8 232.1 84 232.5C103.2 232.9 135 226.667 148.5 223L146 325C142.167 330.5 124.4 341.6 84 342Z" fill="#FF3055"/>
<path d="M148.5 141.018C148.5 151.153 149 163.374 149 173.397C149 180.599 149 185.761 149 192.905C149 201.182 150 209.125 150 217.489C150 227.62 149.5 237.819 149.5 248.018" stroke="#161616" stroke-width="15" stroke-linecap="round" stroke-linejoin="round"/>
<path d="M149.377 239.518C149.377 252.136 150.147 273.391 149.377 285.869C148.906 293.495 148.767 301.204 148.767 308.787C148.767 315.361 148.767 323.5 144.366 330.181C135.604 338.895 123.301 340.06 111.895 342.341C106.232 343.474 97.4219 344.018 91.5 344.018C87.2206 344.018 85.3943 344.018 81.0835 344.018C76.4674 344.018 71.8514 344.018 67.2353 344.018C55.4391 344.018 43.7494 340.343 34.3246 334.143C32.7516 333.109 29.0354 330.648 28 329.018C24.296 325.121 22.5 322.559 22.5 317.518" stroke="#161616" stroke-width="15" stroke-linecap="round" stroke-linejoin="round"/>
<path d="M22.5 317.018C22.5 305.303 22 294.134 22 282.42C22 269.217 22 256.2 22 243.114C22 231.82 22 220.525 22 209.231C22 204.208 22.5 199.06 22.5 194.153C22.5 190.885 23.3727 175.714 24 172.518C24 170.5 24.5 162.018 24.5 162.018" stroke="#161616" stroke-width="15" stroke-linecap="round" stroke-linejoin="round"/>
<path d="M24.2795 161.771C24.2795 161.771 24 156 19 155C14 154 10.8233 154.813 8.38055 154.233C6.9519 153.893 9.98925 150.487 10.2204 150.102C13.5087 144.63 17.5 142.5 23.4184 138.74C33 134 40.5257 133.466 40.5257 133.466C55.5 132.5 68.5244 132.426 82.7031 132.426C91.445 132.426 99.9348 133.466 108.634 133.466C113.463 133.466 118.236 133.875 123.006 133.985C128.056 134.102 132.886 136.065 138.002 136.065C141.446 136.065 148 139.411 148 142.564C148 148.069 137.637 149.582 132.379 149.582C124.5 151 123.006 152 114 152C110.984 152.132 102.449 152.702 99.2616 152.702C86.2253 152.702 82 153.018 68.5 152.182C62.2987 152.182 46.9586 150.165 40.8381 149.034C38.1011 148.528 35.125 147.769 32.4026 147.503C31.1581 147.381 29.2187 146.008 28.0286 145.539C26.574 144.965 25.0774 145.674 23.7935 146.059C21.4286 146.767 18.2488 147.715 16.2953 149.178C14.8811 150.237 12.2885 151.971 10.5328 152.702" stroke="#161616" stroke-width="15" stroke-linecap="round" stroke-linejoin="round"/>
<path d="M81.5 271.018C81.5 277.94 83 280.518 81 297.518C79 305.018 78.4381 304.692 76.5 307.518C75.1521 309.483 74.0858 311.98 69.3022 315.749C64.5185 319.518 57.6527 318.971 54.0131 318.971C48.0472 318.971 46.6209 312.153 45.6191 308.063C41.1261 289.721 69.0316 276.139 81 265.518" stroke="#161616" stroke-width="15" stroke-linecap="round" stroke-linejoin="round"/>
<path d="M81.6055 273.976C81.6055 271.133 82.0019 268.724 82.4539 265.912C84.3316 262.909 94.4393 233.787 95.6535 230.551C99.3451 220.709 104.145 211.492 107.752 201.521C109.966 195.401 112.546 189.262 115.482 183.392C118.253 177.851 119.653 171.605 122.439 166.159C124.804 161.535 140.565 129.846 143.001 125.518" stroke="#161616" stroke-width="15" stroke-linecap="round" stroke-linejoin="round"/>
<path d="M188.5 34.0184C188.5 36.0181 185 43.5181 180 48.0181C175.995 52.9743 174.292 53.25 173.963 53.1241C173.868 53.0877 173.888 53.0177 174 53.0177C175.865 47.5172 175.381 24.3628 182.922 27.2477C185.536 28.2478 188 29.5184 188.5 34.0184Z" fill="#161616"/>
<path d="M174 53.0177C175.865 47.5172 175.381 24.3628 182.922 27.2477C185.536 28.2478 188 29.5184 188.5 34.0184C188.5 36.0181 185 43.5181 180 48.0181C174.836 54.4084 173.5 53.0177 174 53.0177ZM174 53.0177C172.754 56.6933 160.565 84.7336 159 89.0176C157.435 93.3015 144.873 120.973 143.5 124.518" stroke="#161616" stroke-width="15" stroke-linecap="round" stroke-linejoin="round"/>
</svg>
