<svg width="245" height="7" viewBox="0 0 245 7" fill="none" xmlns="http://www.w3.org/2000/svg">
<path d="M2 5C12.0056 5 21.6558 4.14286 31.6056 4.14286C36.4309 4.14286 41.3103 3.28571 46.1487 3.28571C54.299 3.28571 62.1867 4.14286 70.0409 4.14286C79.9864 4.14286 89.9319 4.14286 99.8774 4.14286C109.206 4.14286 120.721 4.90113 129.772 4.04762C138.104 3.26182 147.644 3.16962 156.203 2.83333C161.61 2.62087 167.391 2 172.824 2C180.77 2 187.571 2.85714 195.735 2.85714C199.939 2.85714 203.497 3.28571 207.681 3.28571C212.219 3.28571 215.928 4.04617 220.147 4.14286C227.711 4.31624 235.422 4.14286 243 4.14286" stroke="#FFD53F" stroke-width="3" stroke-linecap="round" stroke-linejoin="round"/>
</svg>
